<?xml version="1.0" encoding="utf-8"?>
<!-- Generator: Adobe Illustrator 21.0.1, SVG Export Plug-In . SVG Version: 6.00 Build 0)  -->
<svg version="1.1" xmlns="http://www.w3.org/2000/svg" xmlns:xlink="http://www.w3.org/1999/xlink" x="0px" y="0px" width="550px"
	 height="385px" viewBox="0 0 550 385" enable-background="new 0 0 550 385" xml:space="preserve">
<g id="background">
	<rect id="color" fill="#FFFEF7" width="550" height="385"/>
</g>
<g id="icons">
	<g id="spray_cleaner">
		<circle id="label_3_" fill="#687492" cx="424" cy="267.5" r="65"/>
		<g id="icon_3_">
			<g>
				<path fill="#B1E8F2" d="M434.1,252.3c-2.5,0-10.1,0-12.6,0c-1.3,0-2.5,1.3-2.5,2.7c0,4.9,5.1,2.4,5.1,7.4l16.6-0.2
					C442.1,266.5,436.3,252.3,434.1,252.3z"/>
				<path fill="#7DCCDB" d="M444.2,285.5c0-0.3,0-0.5,0-0.8c0-0.4,0-0.9,0-1.3c0-0.4,0-0.7,0-1.1c0-0.3,0-0.6,0-0.9
					c0-0.5-0.1-0.9-0.1-1.4c0-0.1,0-0.3,0-0.4c-0.5-7.4-1.8-13-3.3-17.3l-16.6,0.2c0,7.6-17.7,10.1-17.7,22.8v17.7
					c0,2.5,2.5,5.1,5.1,5.1h25.3c2.5,0,7.6-2.5,7.6-20.2C444.2,287,444.2,286.2,444.2,285.5z"/>
			</g>
			<path fill-rule="evenodd" clip-rule="evenodd" fill="#FFFEF7" d="M436.6,287.7c0-12.6-2.5-15.2-5.1-15.2
				c-5.1,0-17.7,5.5-17.7,8.9v16.3c0,1.3,1.3,2.5,2.5,2.5h15.2C434.1,300.4,436.6,300.4,436.6,287.7z"/>
			<g id="Nut_1_">
				<rect x="421.5" y="244.7" fill="#323C46" width="12.6" height="7.6"/>
			</g>
			<path fill-rule="evenodd" clip-rule="evenodd" fill="#323C46" d="M406.3,247.3c0,1.3,1.3,2.5,2.5,2.5c2.5,0,12.6-7.6,12.6-10.1
				v-2.5h-5.1C416.4,239.7,406.3,246,406.3,247.3z"/>
			<path fill-rule="evenodd" clip-rule="evenodd" fill="#F2F1DE" d="M444.2,234.6c0,2.5-10.1,7.6-10.1,10.1h-12.6
				c0-2.5-7.6-7.6-10.1-7.6v-10.1l0,0C436.6,227.1,444.2,232.1,444.2,234.6z"/>
			<path fill-rule="evenodd" clip-rule="evenodd" fill="#3E4A57" d="M406.3,227.1h5.1v10.1h-5.1c-1.4,0-2.5-1.1-2.5-2.5v-5.1
				C403.8,228.2,404.9,227.1,406.3,227.1z"/>
			<path fill-rule="evenodd" clip-rule="evenodd" fill="#FF6F69" d="M432.8,300.4h-18.9v-18.9h4.2c8.1,0,14.6,6.6,14.6,14.6V300.4z"
				/>
			<path fill-rule="evenodd" clip-rule="evenodd" fill="#FFD37A" d="M427.8,300.4h-13.9v-13.9h3.1c6,0,10.8,4.8,10.8,10.8V300.4z"/>
		</g>
	</g>
	<g id="bucket_water">
		<circle id="label_1_" fill="#3A4552" cx="275" cy="267.5" r="65"/>
		<g id="icon_1_">
			<g>
				<path fill="#B1E8F2" d="M293.7,262.8c-2.2-1.7-1-4-0.7-5.2c0.1-0.5,0.9-1.7,1.8-2.8c-0.2-0.1-17-5.2-17.2-5.7
					c-0.6,0-0.9-0.5-0.9-0.5l-1-2.8c-0.8-4.3-2.3-1.4-2.3-1.4c-0.4,1-0.9,4.8-0.9,4.8c-2,2.4-2.3-2.1-2.3-2.1
					c-0.6-1.9-2.6-0.2-2.6-0.2c-1.8,0.3-1.3-0.9-1.3-0.9c1.3-7.3-2.2-6.7-2.2-6.7c-2,0.6-1,2.9-1,2.9c0.6,1.2,0.7,4,0.7,4
					c-2.8,2.6-3.7-2-3.7-2c-0.9-2.2-0.6-8.8-0.6-8.8c-1.5-4.1-3-0.1-3-0.1c-0.7,2.2,1.1,5.1,1.6,6.1s0.6,2.7,0.6,2.7
					c-0.7,0.6-2.1-2.4-2.1-2.4c-1.8-2.6-2-0.3-1.5,0.3c0.5,0.6,2.6,4.9,2.6,4.9c0.4,1.7-1,1.2-1,1.2c-1-2.2-4.9-11.4-4.9-11.4
					c-4.7-11.6-8.2-7.9-8.2-7.9c-1.5,1.7,6.9,12.9,6.9,12.9c4.7,7.7,6.7,20,6.7,20c-0.5,1.8-1.7,2.4-1.7,2.4c-3.6,2.1-4,3.3-4,3.3
					c0,1.9,1.3,1.4,1.7,1.1c0.5-0.3,1.6-2,1.6-2c2.2-0.7,2.5,0.7,2.5,0.7c0.3,0.7-0.5,3.5-0.5,3.5c0.5,1.3,1.7,0,1.7,0
					c1.8-3,11.3-2.4,11.3-2.4c2.1,0.4,4,2.2,6.2,3c2.1,0.7,5.7,0.1,7.3-0.7c1.6-0.8,4.5-1.8,4.5-1.8c1.2-0.5,1.4-0.3,1.4-0.3
					c0.7,1,3.1,1,4,0.2c0.8-0.8,0.8-3,0.8-3c1.9-1.2,3.7,1,4-0.6C298,263.5,293.7,262.8,293.7,262.8z"/>
				<g>
					<path fill="#7DCCDB" d="M300.8,244.3c-1.3-0.7-3.5,3.4-3.5,3.4c-1.1,1.5-3.1,0.9-3.2,0.7c-1.9-2,0-3.8,0-3.8
						c3.1-3.5,5.5-9.8,5.5-9.8c0.5-3.2-2.8-2.7-3.5-1.9c-0.7,0.8-0.3,5-0.7,6c-0.3,1-3.9,5.6-4.5,5.9c-0.7,0.2-1.5,0.2-1.5-0.4
						c0-0.7,0.2-2.1-0.5-2.2c-0.7-0.1-1.2,1.6-1.2,1.6c-0.9,1.6-2.6,1.2-2.6,1.2c-4-0.7-6.3,3-6.3,3c-0.6,0.9-1.1,1.2-1.4,1.2
						c0.2,0.5,0.6,0.9,1,1.3c1.7,1.3,3.4,2.7,5.4,3.5c2.4,1.1,4.8,1.7,7.5,1.6c1.1,0,3.2-0.8,3.3-0.8c1-1.4,2.4-2.6,3.4-4.8
						c0.7-1.4,1.2-2.4,1.2-2.4C301.9,246.6,302.1,245,300.8,244.3z"/>
				</g>
				<path fill="#B1E8F2" d="M259.5,232.8c0,0-4.5-4.8-1.6-7.4c0,0,4-1,2.6,2.8c-0.2,0.5-0.6,0.2-0.9,1.2
					C259.7,229.4,260.6,233,259.5,232.8z"/>
			</g>
			<g>
				<path fill="#87D9BE" d="M299.2,262.1h-48.6L252,303c0.1,1.8,1.5,3.1,3.3,3.1h39.3c1.8,0,3.2-1.4,3.3-3.1L299.2,262.1z"/>
				<rect x="247.5" y="256" fill="#78C0A8" width="54.7" height="7.6"/>
				<path fill="#78C0A8" d="M298.5,283c-0.3,0.6-0.7,1.2-1,1.8c-4.6,7.1-12.2,10.7-22.6,10.7c-10.3,0-17.9-3.6-22.5-10.6
					c-0.4-0.6-0.8-1.3-1.1-1.9l0.2,5.7c2,2.5,4.4,4.5,7.3,6.1c4.5,2.5,9.9,3.7,16.1,3.7c6.3,0,11.7-1.3,16.1-3.7
					c2.8-1.6,5.2-3.6,7.3-6.1L298.5,283z"/>
				<path fill="#F2F1DE" d="M303.8,257.5c-0.8,0-1.5,0.7-1.5,1.5v13.6c0,0.5-0.6,5.6-3.9,10.6c-4.7,7.1-12.6,10.7-23.4,10.7
					c-10.7,0-18.6-3.6-23.4-10.6c-3.4-5.1-3.9-10.2-4-10.7V259c0-0.8-0.7-1.5-1.5-1.5c-0.8,0-1.5,0.7-1.5,1.5v13.7l0,0.1
					c0,0.3,0.5,6.2,4.4,12.1c2.3,3.5,5.4,6.3,9.2,8.3c4.6,2.5,10.3,3.7,16.8,3.7c6.5,0,12.1-1.3,16.8-3.7c3.8-2,6.8-4.8,9.2-8.3
					c4-6,4.4-11.9,4.4-12.1l0-0.1V259C305.3,258.2,304.6,257.5,303.8,257.5z"/>
			</g>
		</g>
	</g>
	<g id="vacuum_cleaner">
		<circle id="label" fill="#72B9C7" cx="126" cy="267.5" r="65"/>
		<g id="icon">
			<g>
				<path fill="#323C46" d="M153.2,301.6h3.2c0.8,0,1.4-0.6,1.4-1.4V290h-4.6V301.6z"/>
			</g>
			<g>
				<path fill="#323C46" d="M124.6,301.6h3.2V290h-4.6v10.1C123.1,300.9,123.8,301.6,124.6,301.6z"/>
			</g>
			<g>
				<path fill="#FFD37A" d="M140.4,255.4c9.6,0,17.3,7.8,17.3,17.3V290h-4.6v9.2h-25.4V290h-4.6v-17.3
					C123.1,263.1,130.9,255.4,140.4,255.4z"/>
			</g>
			<g>
				<path fill="#DBB569" d="M132.4,297h16.2c0.6,0,1.2-0.5,1.2-1.2c0-0.6-0.5-1.2-1.2-1.2h-16.2c-0.6,0-1.2,0.5-1.2,1.2
					C131.2,296.4,131.7,297,132.4,297z"/>
			</g>
			<g>
				<path fill="#DBB569" d="M132.4,292.3h16.2c0.6,0,1.2-0.5,1.2-1.2c0-0.6-0.5-1.2-1.2-1.2h-16.2c-0.6,0-1.2,0.5-1.2,1.2
					C131.2,291.8,131.7,292.3,132.4,292.3z"/>
			</g>
			<path fill="#DBB569" d="M150.8,273.9c0-6.4-4.7-11.6-10.4-11.6s-10.4,5.2-10.4,11.6"/>
			<g>
				<g>
					<path fill="#465361" d="M97.7,300.4h18.5v-2.3c0-0.6-0.5-1.2-1.2-1.2H98.8c-0.6,0-1.2,0.5-1.2,1.2V300.4z"/>
				</g>
				<g>
					<g>
						<path fill="#323C46" d="M101.2,246.5c0,3.5,1.2,6.8,3.5,9.4v6.6l-3.8-3.8c-2.7-2.7-4.3-6.4-4.3-10.3v-4.6h4.6V246.5z"/>
					</g>
					<g>
						<polygon fill="#323C46" points="123.1,274.5 123.1,281 104.6,262.5 104.6,255.9 						"/>
					</g>
				</g>
				<g>
					<path fill="#EBE4D4" d="M98.8,234.7c5.1-3.3,10.4,0.3,10.4,5.1v8.7v45.1c0,0.6-0.5,1.2-1.2,1.2h-2.3c-0.6,0-1.2-0.5-1.2-1.2
						v-45.1v-8.7c0-1-0.8-1.7-1.7-1.7c-1,0-1.7,0.8-1.7,1.7v4h-4.6l0-4.7C96.5,237.3,97.4,235.7,98.8,234.7z"/>
				</g>
				<g>
					
						<rect x="104.6" y="268.1" transform="matrix(-1 -4.919144e-11 4.919144e-11 -1 213.8667 540.7778)" fill="#C9C3B5" width="4.6" height="4.6"/>
				</g>
				<g>
					<path fill="#323C46" d="M95.4,301.6h23.1c0.6,0,1.2-0.5,1.2-1.2c0-0.6-0.5-1.2-1.2-1.2H95.4c-0.6,0-1.2,0.5-1.2,1.2
						C94.2,301.1,94.7,301.6,95.4,301.6z"/>
				</g>
				<g>
					<path fill="#323C46" d="M102.3,297h9.2v-2c0-0.6-0.5-1.2-1.2-1.2h-6.9c-0.6,0-1.2,0.5-1.2,1.2V297z"/>
				</g>
			</g>
		</g>
	</g>
	<g id="maid_2">
		<circle id="label_5_" fill="#78C0A8" cx="424" cy="117.5" r="65"/>
		<g id="icon_5_">
			<path fill="#AD522D" d="M397,137.9c5.2-10.8,1.3-35.6,1.3-35.6c0-13.9,11.6-25.1,26-25.1h-0.6c14.3,0,26,11.2,26,25.1
				c0,0-3.9,24.8,1.3,35.6H397z"/>
			<path fill="#F5B887" d="M424.9,178.1l-18-33.1c8.9-4.9,8.8-12.9,8.8-12.9H432c0,0,0.4,8.1,9.2,12.9L424.9,178.1z"/>
			<path fill="#FFCC99" d="M445,103.4c0,13.4-9.4,32.4-21,32.4c-11.6,0-21-19-21-32.4c0-13.4,9.4-24.3,21-24.3
				C435.5,79.1,445,89.9,445,103.4z"/>
			<path fill="#323C46" d="M466.5,166.6l-1.4-10.1c-0.4-2.8-2.3-5.1-5-5.8l-18.9-5.6l-17.3,11.4l-17.1-11.4l-18.9,5.6
				c-2.7,0.8-4.6,3.1-5,5.9l-1.4,10.1c3.7,3.2,7.7,5.9,12,8.2l0,0c9.1,4.8,19.5,7.6,30.5,7.6c11,0,21.3-2.7,30.3-7.5l0,0
				C458.7,172.7,462.8,169.9,466.5,166.6z"/>
			<g>
				<path fill="#FFFEF7" d="M413.8,138.4c0.3-0.3-1.7,7.3,3.3,11.7c5.1,4.5,5.5,5,6.8,6.2c0,0-0.1,9-6.4,9c-0.1,0-0.3,0-0.4,0
					c-6.4-0.4-10.4-10-12.3-14.7l-0.3-0.6c-1-2.4-1.2-4-1.3-4.1C403.4,146.1,410.4,141.2,413.8,138.4z"/>
				<path fill="#FFFEF7" d="M434.2,138.4c-0.3-0.3,1.7,7.3-3.3,11.7c-5.1,4.5-5.5,5-6.8,6.2c0,0,0.1,9,6.4,9c0.1,0,0.3,0,0.4,0
					c6.4-0.4,10.4-10,12.3-14.7l0.3-0.6c1-2.4,1.2-4,1.3-4.1C444.6,146.1,437.6,141.2,434.2,138.4z"/>
			</g>
			<polygon fill="#FFFEF7" points="401.3,173.9 394.2,173.9 394.2,148.7 401.3,146.6 			"/>
			<polygon fill="#FFFEF7" points="446.7,173.9 453.8,173.9 453.8,148.7 446.7,146.6 			"/>
			<g>
				<path fill="#FFFEF7" d="M452.4,170.3h-56.8c-2.1,0-3.8,1.5-4.2,3.4c9.6,5.6,20.7,8.8,32.6,8.8c11.9,0,23-3.2,32.6-8.8
					C456.2,171.8,454.5,170.3,452.4,170.3z"/>
			</g>
			<path fill="#AD522D" d="M446.6,111.9c0,0,5.8-32.9-23-32.9c0,0-22.4-3.9-22.4,32.7c0,0,8.2-3.2,12.3-14.7
				C413.5,97,424,112.6,446.6,111.9z"/>
			<path fill="#FFFEF7" d="M442,91.4c-0.8-1.9-2.5-3-4.3-3.1c0-1.4-0.6-2.9-1.7-4c-1.4-1.5-3.4-2-5.1-1.7c-0.9-2.1-3.6-3.6-6.8-3.6
				s-6,1.5-6.8,3.6c-1.7-0.3-3.7,0.2-5.1,1.7c-1.1,1.1-1.7,2.6-1.7,4c-1.8,0.1-3.5,1.2-4.3,3.1c-0.7,1.7-0.6,3.5,0.3,4.8l0,0
				c0,0,0,0,0,0c0.3-0.1,6.6-4.4,17.7-4.4c10.7,0,17.5,4.3,17.7,4.4c0,0,0,0,0,0l0,0C442.6,94.9,442.7,93,442,91.4z"/>
			<circle fill="#FFFEF7" cx="423.9" cy="166.6" r="1.2"/>
		</g>
	</g>
	<g id="duster">
		<circle id="label_2_" fill="#FFD37A" cx="275" cy="117.5" r="65"/>
		<g id="icon_2_">
			<path fill="#262E36" d="M277.7,79.3c0.1,1.7,0,2.2,0,3.9c-1.4-2.3-3-4.5-4.7-6.5c0.2,1.2,0.3,2.5,0.4,3.7
				c-1.3-1.8-2.7-3.5-4.2-5.2c0.8,2.7,1.3,5.5,1.7,8.3c-2-3.2-4.1-6.2-6.3-9.2c0.5,1.9,0.8,3.9,1.1,5.8c-0.9-1.2-1.8-2.4-2.7-3.6
				c0.3,1.6,0.6,3.2,0.9,4.8c-1.3-1.9-2.6-3.8-3.9-5.7c0.4,1.8,0.7,3.5,1.1,5.2c-0.1,0-0.1-0.1-0.2-0.1c0.1,0.2,0.2,0.4,0.2,0.5
				c0.2,0.8,0.3,1.5,0.5,2.3c-0.2-0.1-0.3-0.2-0.5-0.3c-1.4-1.9-2.7-3.8-4-5.8c0.2,1.2,0.4,2.4,0.6,3.5c-0.7-0.4-1.4-0.9-2-1.3
				c0.9,1.3,1.8,2.7,2.6,4.1c0.1,0.3,0.1,0.6,0.2,0.9c-0.2-0.2-0.5-0.4-0.7-0.6c-0.9-1.3-1.7-2.7-2.5-4.1c0.1,0.8,0.1,1.6,0.2,2.4
				c-1-0.7-1.9-1.4-2.9-2.1c1.2,2,2.4,4.1,3.4,6.2c0,0.2,0.1,0.4,0.1,0.6c-0.6-0.5-1.2-1-1.9-1.5c-0.1-0.2-0.3-0.3-0.4-0.5
				c0,0.1,0,0.1,0,0.2c-1.4-1.1-2.8-2.2-4.2-3.3c1.1,2,2.2,4,3.3,6c-1.3-1-2.6-2-3.9-3c0.7,1.3,1.3,2.7,2,4
				c-1.6-1.1-3.2-2.4-4.7-3.7c1.6,3.4,3.4,6.6,5.3,9.8c-2.3-1.6-4.5-3.3-6.6-5.3c0.8,2.1,1.7,4.1,2.7,6.1c-1.1-0.6-2.1-1.3-3.1-2
				c1,2.5,2.3,4.9,3.7,7.2c-1.5-0.8-2-0.9-3.5-1.8c1.8,4.3,3.3,7.7,6.5,11.2c1.3-0.4,2-0.6,3.3-1c-1,0.7-1.5,1.1-2.5,1.8
				c2.6,2.6,5.7,5,9.2,6.8c0.8,0.4,1.7,0.8,2.5,1.1c1.7-0.6,2.6-0.9,4.2-1.5c0.1,0,0.1,0,0.2,0.1c-1,0.7-1.7,1.2-2.8,2
				c4.6,1.6,9.5,2.4,14,2.2c0.4,0.1,0.8,0.2,1.2,0.3c0,0,0.1,0.1,0.1,0.1c0.1,0.1,0.2,0.1,0.2,0.1c0,0,0-0.1,0-0.1
				c0.1,0,0.2,0,0.3,0.1c0.1,0,0.2,0,0.2,0c0-0.1-0.1-0.3-0.1-0.4c0,0,0,0,0,0c0-0.1,0.1-0.1,0.1-0.2c0.1,0,0.2,0,0.2,0c0,0,0,0,0,0
				c0.1,0.1,0.2,0.2,0.3,0.3c0,0,0-0.1,0.1-0.2c0-0.1,0-0.2,0.1-0.3c0,0,0.1,0,0.1,0c0,0,0-0.1,0-0.2c0,0,0-0.1,0-0.1
				c0.1-0.4,0.2-0.8,0.3-1.2c2.2-4,3.7-8.7,4.4-13.5c-1.2,0.6-1.9,1-3,1.6c0-0.1,0-0.1,0-0.2c1.2-1.1,1.9-1.8,3.2-3
				c0.1-0.9,0.1-1.8,0.1-2.8c0-3.9-0.7-7.8-1.9-11.3c-1.1,0.6-1.6,0.9-2.7,1.4c1-1,1.4-1.5,2.4-2.5
				C283.1,85.7,280.7,82.8,277.7,79.3z"/>
			<g>
				<g>
					<path fill="#323C46" d="M266.9,99.4c-0.1-1.8-0.1-2.7-0.2-4.5c-6.1-5.3-12.5-10.2-18-16.4c1.8,5,3.9,9.8,6.2,14.6
						c1.3,0.3,2,0.4,3.4,0.6c-1.1,0.2-1.7,0.3-2.8,0.5c2.1,3.9,4.5,7.6,7.4,10.9c0.7,0.8,1.4,1.6,2.1,2.3c2,0.1,3,0.2,5.1,0.3
						c-1.5,0.4-2.3,0.6-3.7,1c4.7,4.2,10.1,7.5,15.5,9.1c0,0,0-0.1,0-0.2c-1.5-7.5-6.5-14-11.7-19.4c-0.7-0.7-1.5-1.5-2.3-2.2
						C267.5,97.3,267.3,98,266.9,99.4z"/>
					<path fill="#3E4A57" d="M266.9,99.4c-0.1-1.8-0.1-2.7-0.2-4.5c-6.1-5.3-12.5-10.2-18-16.4c9.2,14.9,21.3,26.5,33.1,39
						c-1.6-7.6-6.5-14-11.7-19.4c-0.7-0.7-1.5-1.5-2.3-2.2C267.5,97.3,267.3,98,266.9,99.4z"/>
				</g>
				<g>
					<path fill="#323C46" d="M271.5,97.7c0.5-1.7,0.8-2.5,1.2-4.2c-5.1-7.2-10.8-13.4-17.1-19.3c2.1,4.5,3.8,9.2,5.3,13.8
						c1.3,0.7,2,1,3.4,1.7c-1.2-0.2-1.8-0.3-3-0.5c1.4,4.2,2.8,8.3,4.5,12.4c0.4,1,0.9,1.9,1.3,2.8c1.9,0.8,2.8,1.2,4.7,2
						c-1.5-0.1-2.3-0.2-3.8-0.4c3.2,5.3,6.6,10.2,11.5,13.7c0,0,0-0.1,0-0.2c0.9-7.2-1.1-15-4.4-22.1c-0.4-0.9-1-1.8-1.5-2.7
						C272.7,96,272.3,96.6,271.5,97.7z"/>
					<path fill="#3E4A57" d="M271.5,97.7c0.5-1.7,0.8-2.5,1.2-4.2c-5.1-7.2-10.8-13.4-17.1-19.3c10.1,14.3,17,29.6,23.9,45.4
						c0.9-7.3-1.1-15-4.4-22.1c-0.4-0.9-1-1.8-1.5-2.7C272.7,96,272.3,96.6,271.5,97.7z"/>
				</g>
				<g>
					<path fill="#323C46" d="M264,108.5c-0.3-1.8-0.5-2.7-0.8-4.5c-6.2-3.8-12.6-7.4-18.4-12.1c1.4,4.8,3.7,9.4,6.6,13.6
						c1.4-0.2,2.1-0.3,3.5-0.5c-1.1,0.6-1.7,0.9-2.8,1.4c2.4,3.1,5.4,6.2,8.8,8.6c0.8,0.6,1.7,1.1,2.5,1.6c2-0.4,3-0.6,5-0.9
						c-1.4,0.7-2.1,1.1-3.4,1.8c5.3,2.8,11.1,4.6,16.5,4.9c0,0,0-0.1-0.1-0.2c-3-6.8-8.9-11.8-14.4-15.8c-0.8-0.6-1.6-1.1-2.5-1.7
						C264.2,106.3,264.1,107,264,108.5z"/>
					<path fill="#3E4A57" d="M264,108.5c-0.3-1.8-0.5-2.7-0.8-4.5c-6.2-3.8-12.6-7.4-18.4-12.1c9.9,14.1,23.5,21.6,36.5,30.3
						c-3.2-6.9-8.9-11.8-14.4-15.8c-0.8-0.6-1.6-1.1-2.5-1.7C264.2,106.3,264.1,107,264,108.5z"/>
				</g>
				<g>
					<path fill="#323C46" d="M264.6,104.8c-0.2-1.8-0.4-2.7-0.6-4.5c-6-4.1-12.3-8-17.9-13.2c1.4,4.8,3.5,9.5,6.3,13.8
						c1.3-0.1,2-0.1,3.4-0.2c-1.1,0.5-1.6,0.7-2.7,1.2c2.2,3.3,5,6.5,8.3,9.2c0.8,0.6,1.6,1.2,2.4,1.8c2-0.3,3-0.4,5-0.7
						c-1.4,0.6-2.1,1-3.5,1.6c5.1,3.2,10.8,5.3,16.2,5.8c0,0,0-0.1-0.1-0.2c-2.6-7-8.3-12.3-13.7-16.6c-0.8-0.6-1.6-1.2-2.4-1.8
						C265,102.6,264.9,103.3,264.6,104.8z"/>
					<path fill="#3E4A57" d="M264.6,104.8c-0.2-1.8-0.4-2.7-0.6-4.5c-6-4.1-12.3-8-17.9-13.2c9.4,14.3,22.4,22.8,35.1,32.4
						c-2.7-7.1-8.3-12.3-13.7-16.6c-0.8-0.6-1.6-1.2-2.4-1.8C265,102.6,264.9,103.3,264.6,104.8z"/>
				</g>
				<g>
					<path fill="#262E36" d="M268.2,99.7c0.2-1.7,0.3-2.6,0.4-4.3c-5.6-5.8-11.6-11-17.1-16.8c1.7,4.7,3.5,9.4,5.4,14
						c1.3,0.4,2,0.5,3.4,0.9c-1.2,0.1-1.7,0.2-2.9,0.3c1.6,3.7,3.6,7.6,6.1,11.1c0.6,0.8,1.2,1.6,1.8,2.4c1.9,0.3,2.9,0.5,4.9,0.8
						c-1.5,0.2-2.3,0.4-3.8,0.6c4.3,4.3,8.6,8.1,13.8,10.1c0,0,0-0.1,0-0.2c-0.5-7.1-4.2-14-8.6-19.8c-0.6-0.8-1.3-1.5-1.9-2.3
						C269.1,97.8,268.8,98.4,268.2,99.7z"/>
					<path fill="#3E4A57" d="M268.2,99.7c0.2-1.7,0.3-2.6,0.4-4.3c-5.6-5.8-11.6-11-17.1-16.8c8.8,13.9,18.9,26.8,28.7,40
						c-0.6-7.2-4.2-14-8.6-19.8c-0.6-0.8-1.3-1.5-1.9-2.3C269.1,97.8,268.8,98.4,268.2,99.7z"/>
				</g>
				<g>
					<path fill="#323C46" d="M276.4,99.7c0.9-1.5,1.3-2.3,2.2-3.7c-3.7-7.7-8.3-14.2-14.5-19.7c1.5,4.3,2.3,8.7,3.2,13.1
						c1.3,0.8,2,1.2,3.4,2c-1.3-0.3-1.9-0.5-3.2-0.9c0.7,4,1.4,8.1,2.4,12.1c0.2,1,0.5,1.9,0.8,2.9c1.7,1.1,2.5,1.6,4.2,2.6
						c-1.5-0.4-2.2-0.6-3.7-0.9c1.7,5.3,4.5,10.7,8.5,14.7c0,0,0-0.1,0.1-0.2c2.1-6.2,2.3-14.1,0.2-21.5c-0.3-0.9-0.6-1.9-0.9-2.8
						C278,98.2,277.5,98.7,276.4,99.7z"/>
					<path fill="#3E4A57" d="M276.4,99.7c0.9-1.5,1.3-2.3,2.2-3.7c-3.7-7.7-8.3-14.2-14.5-19.7c9.2,14.4,12.1,29.7,15.7,45.4
						c2-6.3,2.3-14.1,0.2-21.5c-0.3-0.9-0.6-1.9-0.9-2.8C278,98.2,277.5,98.7,276.4,99.7z"/>
				</g>
				<g>
					<path fill="#323C46" d="M279.9,100.4c1-1.5,1.5-2.2,2.4-3.6c-3.1-7.9-7.3-14.5-13.6-20.1c1.2,4.3,1.8,8.6,2.5,13
						c1.4,0.8,2,1.3,3.4,2.1c-1.3-0.4-2-0.6-3.2-1c0.5,4,1,8.1,1.8,12.2c0.2,1,0.4,2,0.6,2.9c1.6,1.1,2.5,1.7,4.1,2.8
						c-1.5-0.5-2.2-0.7-3.6-1.1c1.7,5.4,3.6,10.7,7.4,15.2c0,0,0-0.1,0.1-0.2c2.5-6.1,3.2-13.9,1.7-21.5c-0.2-1-0.4-1.9-0.7-2.9
						C281.6,99.1,281,99.5,279.9,100.4z"/>
					<path fill="#3E4A57" d="M279.9,100.4c1-1.5,1.5-2.2,2.4-3.6c-3.1-7.9-7.3-14.5-13.6-20.1c8.9,14.8,10.5,30.2,12.9,45.9
						c2.4-6.2,3.2-13.9,1.7-21.5c-0.2-1-0.4-1.9-0.7-2.9C281.6,99.1,281,99.5,279.9,100.4z"/>
				</g>
				<g>
					<path fill="#262E36" d="M264.7,103.9c-0.1-1.8-0.1-2.8-0.2-4.6c-6-5.2-12.3-10.1-17.5-16.3c1.4,5.2,3.4,10.1,5.6,15.1
						c1.3,0.2,2,0.3,3.4,0.4c-1.1,0.3-1.7,0.4-2.8,0.7c2.1,3.9,4.6,7.6,7.6,10.7c0.7,0.8,1.5,1.5,2.2,2.2c2,0,3.1,0,5.1,0.1
						c-1.5,0.5-2.2,0.7-3.7,1.1c4.9,4,10.5,6.9,15.9,8.2c0,0,0-0.1,0-0.2c-2-7.3-7.2-13.6-12.3-18.8c-0.7-0.7-1.5-1.4-2.3-2.1
						C265.2,101.7,265.1,102.4,264.7,103.9z"/>
					<path fill="#262E36" d="M264.7,103.9c-0.1-1.8-0.1-2.8-0.2-4.6c-6-5.2-12.3-10.1-17.5-16.3c8.6,15.6,20.8,26.6,33.3,38.3
						c-2.1-7.4-7.2-13.6-12.3-18.8c-0.7-0.7-1.5-1.4-2.3-2.1C265.2,101.7,265.1,102.4,264.7,103.9z"/>
				</g>
				<g>
					<path fill="#262E36" d="M271.8,98.9c-1.7-0.8-2.5-1.2-4.2-2c-2.6-7.6-4.9-15.4-8.7-22.7c4.2,3.5,8,7.3,11.8,11.4
						c-0.3,1.3-0.5,1.9-0.8,3.3c0.7-0.9,1-1.4,1.7-2.3c2.9,3.4,5.4,7.1,7.3,11.1c0.5,1,0.9,1.9,1.2,2.9c-0.7,1.9-1.1,2.8-1.8,4.7
						c1-1.2,1.5-1.8,2.4-3c2,6,2.5,12.4,1.5,17.9c0,0-0.1,0-0.2-0.1c-5.9-4.8-9.8-11.9-12.8-18.8c-0.4-0.9-0.8-1.9-1.2-2.9
						C269.6,98.6,270.3,98.7,271.8,98.9z"/>
					<path fill="#323C46" d="M271.8,98.9c-1.7-0.8-2.5-1.2-4.2-2c-2.6-7.6-4.9-15.4-8.7-22.7c10.9,14.1,17.2,29.5,23.2,45.9
						c-5.9-4.9-9.8-11.9-12.8-18.8c-0.4-0.9-0.8-1.9-1.2-2.9C269.6,98.6,270.3,98.7,271.8,98.9z"/>
				</g>
				<g>
					<path fill="#3A4552" d="M270.4,100c0.3-1.9,0.4-2.8,0.6-4.6c-6-7-12.4-13.3-18.7-19.9c2.2,5.1,4.1,10.2,6.1,15.3
						c1.4,0.6,2.1,0.9,3.6,1.4c-1.3,0-1.9-0.1-3.1-0.1c1.7,4.4,3.7,8.7,6.1,12.9c0.6,1,1.2,1.9,1.8,2.8c2,0.6,3.1,0.9,5.2,1.5
						c-1.6,0.1-2.4,0.1-4,0.1c3.8,5.3,8.6,9.9,13.9,12.9c0,0,0-0.1,0-0.2c-0.2-7.6-3.2-15.8-7.8-22.7c-0.6-0.9-1.3-1.8-2-2.7
						C271.5,98,271.1,98.7,270.4,100z"/>
					<path fill="#262E36" d="M270.4,100c0.3-1.9,0.4-2.8,0.6-4.6c-6-7-12.4-13.3-18.7-19.9c10.1,15.4,20,30.9,29.5,46.6
						c-0.3-7.7-3.2-15.8-7.8-22.7c-0.6-0.9-1.3-1.8-2-2.7C271.5,98,271.1,98.7,270.4,100z"/>
				</g>
			</g>
			<path fill="#687492" d="M305.3,158c0.5,0.9,0.3,2-0.6,2.6l0,0c-0.9,0.5-2,0.3-2.6-0.6l-23.6-38.4c-0.5-0.9-0.3-2,0.6-2.6l0,0
				c0.9-0.5,2-0.3,2.6,0.6L305.3,158z"/>
			<path fill="#515B73" d="M285.8,113.3c1.3,2.1-0.2,7-4.3,9.5c-4.1,2.5-9.2,1.6-10.5-0.5c0,0,3.8-1.2,7.9-3.7
				C282.9,116.1,285.8,113.3,285.8,113.3z"/>
		</g>
	</g>
	<g id="maid">
		<circle id="label_4_" fill="#FF6F69" cx="126" cy="117.5" r="65"/>
		<g id="icon_4_">
			<path fill="#F5B887" d="M126.9,178.1l-18-33.1c8.9-4.9,8.8-12.9,8.8-12.9H134c0,0,0.4,8.1,9.2,12.9L126.9,178.1z"/>
			<g>
				<path fill="#FFCC99" d="M147,103.4c0,13.4-9.4,32.4-21,32.4c-11.6,0-21-19-21-32.4c0-13.4,9.4-24.3,21-24.3
					C137.5,79.1,147,89.9,147,103.4z"/>
				<path fill="#503431" d="M149.2,103.9c0-14.8-10.4-26.8-23.2-26.8c-12.8,0-23.2,12-23.2,26.8c0,0.7,0,1.5,0.1,2.3
					c0,0.3,0.1,0.6,0.2,0.9l4.4,11.2c-2-17.6,7.1-16.7,7.6-25.4c-2.6,11.4,32.8,2.8,33.1,37.8"/>
				<path fill="#FFFEF7" d="M141.9,90.5c-0.7-1.9-2.3-3-3.8-3.1c0-1.4-0.5-2.9-1.5-4c-1.3-1.5-3-2-4.5-1.7c-0.8-2.1-3.2-3.6-6-3.6
					c-2.9,0-5.3,1.5-6,3.6c-1.5-0.3-3.3,0.2-4.5,1.7c-1,1.1-1.5,2.6-1.5,4c-1.6,0.1-3.1,1.2-3.8,3.1c-0.7,1.7-0.5,3.5,0.2,4.8l0,0
					c0,0,0,0,0,0c0.2-0.1,5.8-4.4,15.7-4.4c9.5,0,15.5,4.3,15.7,4.4c0,0,0,0,0,0l0,0C142.4,94,142.6,92.2,141.9,90.5z"/>
			</g>
			<path fill="#323C46" d="M156.6,174.8c4.3-2.3,8.3-5,11.9-8.2l-1.4-10.1c-0.4-2.8-2.3-5.1-5-5.8l-18.9-5.6L126,171.2l-17.2-26.1
				l-18.9,5.6c-2.7,0.8-4.6,3.1-5,5.9l-1.4,10.1c3.7,3.2,7.7,6,12,8.3l0,0c0,0,0.1,0,0.1,0.1c0,0,0,0,0.1,0l0,0
				c9,4.8,19.4,7.5,30.3,7.5c10.9,0,21.3-2.7,30.3-7.5l0,0c0,0,0,0,0.1,0C156.4,174.9,156.5,174.9,156.6,174.8L156.6,174.8z"/>
			<circle fill="#FFFEF7" cx="126" cy="175" r="1.2"/>
			<circle fill="#FFFEF7" cx="126" cy="179.3" r="1.2"/>
			<g>
				<path fill="#FFFEF7" d="M111.6,143l-7.8,3.1c-2,0.8-2.4,3.4-0.8,4.8l23,20.3L111.6,143z"/>
				<path fill="#FFFEF7" d="M140.4,143l7.8,3.1c2,0.8,2.4,3.4,0.8,4.8l-23,20.3L140.4,143z"/>
			</g>
		</g>
	</g>
</g>
</svg>
