<?xml version="1.0" encoding="utf-8"?>
<!-- Generator: Adobe Illustrator 19.0.0, SVG Export Plug-In . SVG Version: 6.00 Build 0)  -->
<svg version="1.1" id="Lager_1" xmlns="http://www.w3.org/2000/svg" xmlns:xlink="http://www.w3.org/1999/xlink" x="0px" y="0px"
	 viewBox="0 0 132 132" style="enable-background:new 0 0 132 132;" xml:space="preserve">
<style type="text/css">
	.st0{fill:none;}
	.st1{fill:#D13899;}
	.st2{fill:#AD522D;}
	.st3{fill:#F5B887;}
	.st4{fill:#FFCC99;}
	.st5{fill:#323C46;}
</style>
<g>
	<title>background</title>
	<rect id="canvas_background" x="-1" y="-1" class="st0" width="134" height="134"/>
</g>
<g>
	<title>Layer 1</title>
	<g id="icons">
		<g id="maid_2">
			<circle id="label_5_" class="st1" cx="66" cy="66.5" r="65"/>
			<g id="icon_5_">
				<path id="svg_1" class="st2" d="M39,86.9c5.2-10.8,1.3-35.6,1.3-35.6c0-13.9,11.6-25.1,26-25.1h-0.6c14.3,0,26,11.2,26,25.1
					c0,0-3.9,24.8,1.3,35.6H39z"/>
				<path id="svg_2" class="st3" d="M66.9,127.1L48.9,94c8.9-4.9,8.8-12.9,8.8-12.9H74c0,0,0.4,8.1,9.2,12.9L66.9,127.1z"/>
				<path id="svg_3" class="st4" d="M87,52.4c0,13.4-9.4,32.4-21,32.4s-21-19-21-32.4s9.4-24.3,21-24.3C77.5,28.1,87,38.9,87,52.4z"
					/>
				<path id="svg_4" class="st5" d="M108.5,115.6l-1.4-10.1c-0.4-2.8-2.3-5.1-5-5.8l-18.9-5.6l-17.3,11.4L48.8,94.1l-18.9,5.6
					c-2.7,0.8-4.6,3.1-5,5.9l-1.4,10.1c3.7,3.2,7.7,5.9,12,8.2l0,0c9.1,4.8,19.5,7.6,30.5,7.6s21.3-2.7,30.3-7.5l0,0
					C100.7,121.7,104.8,118.9,108.5,115.6z"/>
				<g id="svg_5">
					<path id="svg_6" class="st5" d="M55.8,87.4c0.3-0.3-1.7,7.3,3.3,11.7c5.1,4.5,5.5,5,6.8,6.2c0,0-0.1,9-6.4,9
						c-0.1,0-0.3,0-0.4,0c-6.4-0.4-10.4-10-12.3-14.7L46.5,99c-1-2.4-1.2-4-1.3-4.1C45.4,95.1,52.4,90.2,55.8,87.4z"/>
					<path id="svg_7" class="st5" d="M76.2,87.4c-0.3-0.3,1.7,7.3-3.3,11.7c-5.1,4.5-5.5,5-6.8,6.2c0,0,0.1,9,6.4,9
						c0.1,0,0.3,0,0.4,0c6.4-0.4,10.4-10,12.3-14.7l0.3-0.6c1-2.4,1.2-4,1.3-4.1C86.6,95.1,79.6,90.2,76.2,87.4z"/>
				</g>
				<path id="svg_12" class="st2" d="M88.6,60.9c0,0,5.8-32.9-23-32.9c0,0-22.4-3.9-22.4,32.7c0,0,8.2-3.2,12.3-14.7
					C55.5,46,66,61.6,88.6,60.9z"/>
			</g>
		</g>
	</g>
</g>
</svg>
