<svg width="132" height="132" xmlns="http://www.w3.org/2000/svg">

 <g>
  <title>background</title>
  <rect fill="none" id="canvas_background" height="134" width="134" y="-1" x="-1"/>
 </g>
 <g>
  <title>Layer 1</title>
  <g id="icons">
   <g id="bucket_water">
    <circle r="65" cy="65.5" cx="66" fill="#3A4552" id="label_1_"/>
    <g id="icon_1_">
     <g id="svg_1">
      <path id="svg_2" d="m84.7,60.8c-2.2,-1.7 -1,-4 -0.7,-5.2c0.1,-0.5 0.9,-1.7 1.8,-2.8c-0.2,-0.1 -17,-5.2 -17.2,-5.7c-0.6,0 -0.9,-0.5 -0.9,-0.5l-1,-2.8c-0.8,-4.3 -2.3,-1.4 -2.3,-1.4c-0.4,1 -0.9,4.8 -0.9,4.8c-2,2.4 -2.3,-2.1 -2.3,-2.1c-0.6,-1.9 -2.6,-0.2 -2.6,-0.2c-1.8,0.3 -1.3,-0.9 -1.3,-0.9c1.3,-7.3 -2.2,-6.7 -2.2,-6.7c-2,0.6 -1,2.9 -1,2.9c0.6,1.2 0.7,4 0.7,4c-2.8,2.6 -3.7,-2 -3.7,-2c-0.9,-2.2 -0.6,-8.8 -0.6,-8.8c-1.5,-4.1 -3,-0.1 -3,-0.1c-0.7,2.2 1.1,5.1 1.6,6.1s0.6,2.7 0.6,2.7c-0.7,0.6 -2.1,-2.4 -2.1,-2.4c-1.8,-2.6 -2,-0.3 -1.5,0.3c0.5,0.6 2.6,4.9 2.6,4.9c0.4,1.7 -1,1.2 -1,1.2c-1,-2.2 -4.9,-11.4 -4.9,-11.4c-4.7,-11.6 -8.2,-7.9 -8.2,-7.9c-1.5,1.7 6.9,12.9 6.9,12.9c4.7,7.7 6.7,20 6.7,20c-0.5,1.8 -1.7,2.4 -1.7,2.4c-3.6,2.1 -4,3.3 -4,3.3c0,1.9 1.3,1.4 1.7,1.1c0.5,-0.3 1.6,-2 1.6,-2c2.2,-0.7 2.5,0.7 2.5,0.7c0.3,0.7 -0.5,3.5 -0.5,3.5c0.5,1.3 1.7,0 1.7,0c1.8,-3 11.3,-2.4 11.3,-2.4c2.1,0.4 4,2.2 6.2,3c2.1,0.7 5.7,0.1 7.3,-0.7c1.6,-0.8 4.5,-1.8 4.5,-1.8c1.2,-0.5 1.4,-0.3 1.4,-0.3c0.7,1 3.1,1 4,0.2c0.8,-0.8 0.8,-3 0.8,-3c1.9,-1.2 3.7,1 4,-0.6c0,-1.6 -4.3,-2.3 -4.3,-2.3z" fill="#B1E8F2"/>
      <g id="svg_3">
       <path id="svg_4" d="m91.8,42.3c-1.3,-0.7 -3.5,3.4 -3.5,3.4c-1.1,1.5 -3.1,0.9 -3.2,0.7c-1.9,-2 0,-3.8 0,-3.8c3.1,-3.5 5.5,-9.8 5.5,-9.8c0.5,-3.2 -2.8,-2.7 -3.5,-1.9c-0.7,0.8 -0.3,5 -0.7,6c-0.3,1 -3.9,5.6 -4.5,5.9c-0.7,0.2 -1.5,0.2 -1.5,-0.4c0,-0.7 0.2,-2.1 -0.5,-2.2c-0.7,-0.1 -1.2,1.6 -1.2,1.6c-0.9,1.6 -2.6,1.2 -2.6,1.2c-4,-0.7 -6.3,3 -6.3,3c-0.6,0.9 -1.1,1.2 -1.4,1.2c0.2,0.5 0.6,0.9 1,1.3c1.7,1.3 3.4,2.7 5.4,3.5c2.4,1.1 4.8,1.7 7.5,1.6c1.1,0 3.2,-0.8 3.3,-0.8c1,-1.4 2.4,-2.6 3.4,-4.8c0.7,-1.4 1.2,-2.4 1.2,-2.4c2.7,-1 2.9,-2.6 1.6,-3.3z" fill="#7DCCDB"/>
      </g>
      <path id="svg_5" d="m50.5,30.8c0,0 -4.5,-4.8 -1.6,-7.4c0,0 4,-1 2.6,2.8c-0.2,0.5 -0.6,0.2 -0.9,1.2c0.1,0 1,3.6 -0.1,3.4z" fill="#B1E8F2"/>
     </g>
     <g id="svg_6">
      <path id="svg_7" d="m90.2,60.1l-48.6,0l1.4,40.9c0.1,1.8 1.5,3.1 3.3,3.1l39.3,0c1.8,0 3.2,-1.4 3.3,-3.1l1.3,-40.9z" fill="#87D9BE"/>
      <rect id="svg_8" height="7.6" width="54.7" fill="#78C0A8" y="54" x="38.5"/>
      <path id="svg_9" d="m89.5,81c-0.3,0.6 -0.7,1.2 -1,1.8c-4.6,7.1 -12.2,10.7 -22.6,10.7c-10.3,0 -17.9,-3.6 -22.5,-10.6c-0.4,-0.6 -0.8,-1.3 -1.1,-1.9l0.2,5.7c2,2.5 4.4,4.5 7.3,6.1c4.5,2.5 9.9,3.7 16.1,3.7c6.3,0 11.7,-1.3 16.1,-3.7c2.8,-1.6 5.2,-3.6 7.3,-6.1l0.2,-5.7z" fill="#78C0A8"/>
      <path id="svg_10" d="m94.8,55.5c-0.8,0 -1.5,0.7 -1.5,1.5l0,13.6c0,0.5 -0.6,5.6 -3.9,10.6c-4.7,7.1 -12.6,10.7 -23.4,10.7c-10.7,0 -18.6,-3.6 -23.4,-10.6c-3.4,-5.1 -3.9,-10.2 -4,-10.7l0,-13.6c0,-0.8 -0.7,-1.5 -1.5,-1.5c-0.8,0 -1.5,0.7 -1.5,1.5l0,13.7l0,0.1c0,0.3 0.5,6.2 4.4,12.1c2.3,3.5 5.4,6.3 9.2,8.3c4.6,2.5 10.3,3.7 16.8,3.7c6.5,0 12.1,-1.3 16.8,-3.7c3.8,-2 6.8,-4.8 9.2,-8.3c4,-6 4.4,-11.9 4.4,-12.1l0,-0.1l0,-13.7c-0.1,-0.8 -0.8,-1.5 -1.6,-1.5z" fill="#F2F1DE"/>
     </g>
    </g>
   </g>
  </g>
 </g>
</svg>