<svg width="132" height="132" xmlns="http://www.w3.org/2000/svg">
 <g>
  <title>background</title>
  <rect x="-1" y="-1" width="134" height="134" id="canvas_background" fill="none"/>
 </g>

 <g>
  <title>Layer 1</title>
  <g id="icons">
   <g id="duster">
    <circle id="label_2_" fill="#FFD37A" cx="66" cy="66.000003" r="65"/>
    <g id="icon_2_">
     <path fill="#262E36" d="m68.700012,27.800003c0.100006,1.700001 0,2.200001 0,3.89999c-1.399994,-2.299999 -3,-4.5 -4.700012,-6.5c0.200012,1.200001 0.300018,2.5 0.400017,3.700001c-1.300018,-1.799999 -2.700008,-3.5 -4.200008,-5.200001c0.799992,2.700001 1.299992,5.5 1.700012,8.299997c-2,-3.199997 -4.10001,-6.199997 -6.300022,-9.199997c0.5,1.89999 0.800022,3.89999 1.10001,5.800001c-0.89999,-1.200001 -1.799988,-2.400002 -2.700008,-3.6c0.300018,1.6 0.60001,3.199999 0.900021,4.799999c-1.300022,-1.9 -2.60001,-3.799999 -3.900021,-5.699999c0.400021,1.799999 0.700008,3.5 1.10001,5.199999c-0.10001,0 -0.10001,-0.10001 -0.199982,-0.10001c0.099983,0.200001 0.199982,0.4 0.199982,0.5c0.200008,0.800001 0.300018,1.5 0.5,2.299999c-0.199982,-0.100002 -0.299992,-0.200001 -0.5,-0.299997c-1.39999,-1.899992 -2.699982,-3.800001 -4,-5.800001c0.200008,1.199999 0.39999,2.4 0.60001,3.5c-0.700008,-0.4 -1.39999,-0.9 -2,-1.300001c0.89999,1.300001 1.799992,2.700001 2.60001,4.099998c0.10001,0.299999 0.10001,0.60001 0.199982,0.899998c-0.199982,-0.200001 -0.5,-0.399998 -0.699982,-0.599998c-0.89999,-1.299997 -1.700008,-2.699997 -2.500019,-4.099997c0.10001,0.799999 0.10001,1.6 0.200008,2.4c-1,-0.700001 -1.900009,-1.4 -2.900009,-2.10001c1.200001,2 2.400009,4.100006 3.39999,6.199997c0,0.200001 0.10001,0.399998 0.10001,0.599998c-0.599991,-0.5 -1.200001,-1 -1.89999,-1.5c-0.10001,-0.200001 -0.299999,-0.299999 -0.400009,-0.5c0,0.100002 0,0.100002 0,0.200001c-1.39999,-1.099998 -2.799992,-2.199997 -4.200001,-3.299997c1.10001,1.999998 2.200001,3.999998 3.299999,5.999998c-1.299999,-1 -2.60001,-2 -3.89999,-3c0.700001,1.299999 1.299992,2.700001 2,4c-1.60001,-1.100002 -3.200008,-2.400002 -4.700008,-3.700001c1.60001,3.400002 3.400009,6.60001 5.299999,9.799999c-2.299999,-1.599998 -4.5,-3.299999 -6.599991,-5.299999c0.799992,2.10001 1.700001,4.10001 2.700001,6.10001c-1.10001,-0.60001 -2.10001,-1.299999 -3.10001,-2c1,2.5 2.299999,4.89999 3.700001,7.200001c-1.5,-0.799999 -2,-0.900002 -3.5,-1.799999c1.799999,4.299999 3.299999,7.699997 6.5,11.199997c1.299999,-0.399998 2,-0.599998 3.299999,-1c-1,0.700001 -1.5,1.100002 -2.5,1.800003c2.60001,2.60001 5.700008,5 9.200008,6.799995c0.799992,0.400002 1.699982,0.800003 2.5,1.100006c1.699982,-0.600006 2.60001,-0.900002 4.199982,-1.5c0.10001,0 0.10001,0 0.200008,0.099998c-1,0.699997 -1.700008,1.199997 -2.799988,2c4.599979,1.600006 9.499996,2.400002 13.999996,2.199997c0.399994,0.099998 0.799995,0.200005 1.199982,0.300003c0,0 0.100014,0.100006 0.100014,0.100006c0.100006,0.099998 0.200005,0.099998 0.200005,0.099998c0,0 0,-0.099998 0,-0.099998c0.099983,0 0.199982,0 0.299995,0.099998c0.100006,0 0.200005,0 0.200005,0c0,-0.099998 -0.100006,-0.299995 -0.100006,-0.399994c0,0 0,0 0,0c0,-0.100006 0.100006,-0.100006 0.100006,-0.200005c0.099983,0 0.199982,0 0.199982,0c0,0 0,0 0,0c0.100014,0.099998 0.200012,0.200005 0.300018,0.300003c0,0 0,-0.099998 0.099983,-0.200005c0,-0.099998 0,-0.199997 0.100014,-0.299995c0,0 0.100006,0 0.100006,0c0,0 0,-0.099998 0,-0.200005c0,0 0,-0.099998 0,-0.099998c0.100014,-0.400002 0.200012,-0.799995 0.299988,-1.199997c2.200012,-4 3.700012,-8.700001 4.400024,-13.5c-1.200012,0.599998 -1.900024,1 -3,1.599998c0,-0.099998 0,-0.099998 0,-0.200001c1.199982,-1.099998 1.899986,-1.799999 3.199982,-3c0.100006,-0.899998 0.100006,-1.799999 0.100006,-2.799999c0,-3.89999 -0.700012,-7.799999 -1.899986,-11.299999c-1.100014,0.599998 -1.600014,0.900002 -2.700012,1.400002c1,-1 1.399986,-1.5 2.399986,-2.5c-1.899986,-4.10001 -4.299988,-6.999998 -7.299988,-10.499998l-0.000008,0.00001z" id="svg_1"/>
     <g id="svg_2">
      <g id="svg_3">
       <path fill="#323C46" d="m57.89999,47.900002c-0.10001,-1.800003 -0.10001,-2.700001 -0.200008,-4.5c-6.10001,-5.300003 -12.499981,-10.200001 -17.999981,-16.399998c1.799988,4.999996 3.89999,9.799995 6.200001,14.599995c1.299988,0.300003 2,0.400002 3.39999,0.600002c-1.10001,0.200001 -1.700012,0.299999 -2.800003,0.5c2.099991,3.899998 4.500023,7.60001 7.400013,10.899998c0.699978,0.800003 1.39999,1.600002 2.10001,2.300003c2,0.099998 3,0.199997 5.099979,0.299999c-1.5,0.399998 -2.299992,0.60001 -3.699982,1c4.699982,4.200001 10.100014,7.499996 15.5,9.10001c0,0 0,-0.100014 0,-0.199997c-1.5,-7.500004 -6.5,-14.000004 -11.700008,-19.400005c-0.699982,-0.699997 -1.5,-1.5 -2.299992,-2.199997c-0.39999,1.299999 -0.60001,2 -1,3.399998l-0.000019,-0.000008z" id="svg_4"/>
       <path fill="#3E4A57" d="m57.89999,47.900002c-0.10001,-1.800003 -0.10001,-2.700001 -0.200008,-4.5c-6.10001,-5.300003 -12.499981,-10.200001 -17.999981,-16.399998c9.200001,14.899998 21.299999,26.499996 33.099987,38.999996c-1.600006,-7.599998 -6.5,-14 -11.700008,-19.400002c-0.699978,-0.699997 -1.5,-1.5 -2.299988,-2.199997c-0.299992,1.399998 -0.5,2.099998 -0.89999,3.5l-0.000011,0z" id="svg_5"/>
      </g>
      <g id="svg_6">
       <path fill="#323C46" d="m62.5,46.200001c0.5,-1.700001 0.799992,-2.5 1.200008,-4.200001c-5.10001,-7.200001 -10.800018,-13.399996 -17.10001,-19.299995c2.10001,4.5 3.799992,9.199999 5.299992,13.799995c1.300018,0.700001 2,1 3.39999,1.700001c-1.199982,-0.200001 -1.799992,-0.299999 -3,-0.5c1.400021,4.200001 2.800018,8.299999 4.5,12.399998c0.400021,1 0.900021,1.900002 1.300018,2.800003c1.89999,0.799999 2.799992,1.199997 4.699982,2c-1.5,-0.100002 -2.299992,-0.200001 -3.799992,-0.400002c3.200012,5.299999 6.60001,10.199997 11.500004,13.699997c0,0 0,-0.099998 0,-0.199997c0.899986,-7.200001 -1.100014,-15 -4.399994,-22.099998c-0.399986,-0.900002 -1,-1.800003 -1.5,-2.700001c-0.89999,1.299999 -1.300018,1.899998 -2.10001,3l0.000011,0z" id="svg_7"/>
       <path fill="#3E4A57" d="m62.5,46.200001c0.5,-1.700001 0.799992,-2.5 1.200008,-4.200001c-5.10001,-7.200001 -10.800018,-13.399996 -17.10001,-19.299995c10.10001,14.299995 17,29.600006 23.899994,45.399994c0.899986,-7.299999 -1.100014,-15 -4.399994,-22.099998c-0.399986,-0.900002 -1,-1.799999 -1.5,-2.700001c-0.89999,1.200001 -1.300018,1.799999 -2.10001,2.89999l0.000011,0.000011z" id="svg_8"/>
      </g>
      <g id="svg_9">
       <path fill="#323C46" d="m55,57c-0.299992,-1.799999 -0.5,-2.700001 -0.799992,-4.5c-6.200008,-3.799999 -12.60001,-7.400002 -18.400009,-12.099998c1.39999,4.799999 3.700001,9.399998 6.599991,13.599998c1.400009,-0.200001 2.10001,-0.299999 3.5,-0.5c-1.099991,0.599998 -1.700001,0.900002 -2.799992,1.400002c2.39999,3.099998 5.39999,6.199997 8.799992,8.599998c0.800018,0.599998 1.700008,1.099998 2.5,1.599998c2,-0.400002 3,-0.599998 5,-0.900002c-1.39999,0.700005 -2.10001,1.100014 -3.39999,1.800003c5.299992,2.800003 11.100014,4.599998 16.5,4.900002c0,0 0,-0.099998 -0.100014,-0.200005c-3,-6.799995 -8.899986,-11.799995 -14.399986,-15.799995c-0.799992,-0.600002 -1.60001,-1.100002 -2.5,-1.700001c-0.299992,1.60001 -0.39999,2.299999 -0.5,3.799999z" id="svg_10"/>
       <path fill="#3E4A57" d="m55,57c-0.299992,-1.799999 -0.5,-2.700001 -0.799992,-4.5c-6.200008,-3.799999 -12.60001,-7.400002 -18.400009,-12.099998c9.89999,14.099998 23.499981,21.599998 36.499981,30.299995c-3.199982,-6.899986 -8.89999,-11.799995 -14.39999,-15.799995c-0.799992,-0.600002 -1.60001,-1.100002 -2.5,-1.700001c-0.199982,1.60001 -0.299992,2.299999 -0.39999,3.799999z" id="svg_11"/>
      </g>
      <g id="svg_12">
       <path fill="#323C46" d="m55.60001,53.299999c-0.199982,-1.799999 -0.39999,-2.700001 -0.60001,-4.5c-6,-4.10001 -12.299992,-8 -17.89999,-13.200001c1.400009,4.800003 3.5,9.5 6.299999,13.800003c1.299999,-0.100002 2,-0.100002 3.39999,-0.200001c-1.099991,0.5 -1.599991,0.700001 -2.700001,1.200001c2.200001,3.299999 5,6.5 8.300022,9.199997c0.799988,0.600002 1.599979,1.200001 2.39999,1.800003c2,-0.300003 3,-0.400002 5,-0.700001c-1.39999,0.60001 -2.10001,1 -3.5,1.60001c5.10001,3.199997 10.799988,5.300003 16.199982,5.800003c0,0 0,-0.100006 -0.099983,-0.200005c-2.600006,-7 -8.300018,-12.299999 -13.700008,-16.599998c-0.799992,-0.60001 -1.60001,-1.200001 -2.39999,-1.799999c-0.300022,1.599998 -0.400021,2.299999 -0.700012,3.799999l0.000011,-0.000011z" id="svg_13"/>
       <path fill="#3E4A57" d="m55.60001,53.299999c-0.199982,-1.799999 -0.39999,-2.700001 -0.60001,-4.5c-6,-4.10001 -12.299992,-8 -17.89999,-13.200001c9.400009,14.300003 22.39999,22.800003 35.10001,32.400002c-2.700012,-7.099998 -8.300018,-12.299999 -13.700008,-16.599998c-0.799992,-0.600002 -1.599983,-1.200001 -2.39999,-1.800003c-0.10001,1.5 -0.200012,2.200001 -0.5,3.700001l-0.000011,0z" id="svg_14"/>
      </g>
      <g id="svg_15">
       <path fill="#262E36" d="m59.200008,48.200001c0.200012,-1.700001 0.299992,-2.600002 0.39999,-4.299999c-5.60001,-5.800003 -11.60001,-11 -17.099987,-16.799997c1.699997,4.699997 3.5,9.399996 5.400009,13.999994c1.299988,0.400002 2,0.5 3.39999,0.900002c-1.200012,0.099998 -1.700012,0.200001 -2.89999,0.299999c1.599979,3.700001 3.599979,7.600002 6.099979,11.100002c0.60001,0.799999 1.200008,1.599998 1.800018,2.399998c1.89999,0.299999 2.89999,0.5 4.89999,0.799999c-1.5,0.200001 -2.299988,0.400002 -3.799988,0.600002c4.299988,4.299999 8.599979,8.10001 13.799992,10.10001c0,0 0,-0.100014 0,-0.199997c-0.5,-7.100002 -4.200012,-14.000004 -8.600014,-19.800003c-0.60001,-0.799999 -1.299988,-1.5 -1.89999,-2.299999c-0.60001,1.299999 -0.900017,1.899998 -1.5,3.199997l0,-0.000008z" id="svg_16"/>
       <path fill="#3E4A57" d="m59.200008,48.200001c0.200012,-1.700001 0.299992,-2.600002 0.39999,-4.299999c-5.60001,-5.800003 -11.60001,-11 -17.099987,-16.799997c8.799999,13.899996 18.900009,26.799997 28.700001,39.999994c-0.600014,-7.199997 -4.200012,-14 -8.600014,-19.799999c-0.60001,-0.799999 -1.299988,-1.5 -1.89999,-2.299999c-0.60001,1.299999 -0.900017,1.900002 -1.5,3.200001z" id="svg_17"/>
      </g>
      <g id="svg_18">
       <path fill="#323C46" d="m67.399986,48.200001c0.899994,-1.5 1.299995,-2.299999 2.199982,-3.700001c-3.699982,-7.700001 -8.299988,-14.199997 -14.499996,-19.699997c1.5,4.300001 2.300018,8.699997 3.200008,13.099998c1.299992,0.799999 2,1.199997 3.39999,2c-1.299992,-0.300003 -1.89999,-0.5 -3.199982,-0.900002c0.699982,4 1.39999,8.099998 2.39999,12.099998c0.199982,1 0.5,1.900002 0.799992,2.900002c1.700008,1.099998 2.499996,1.599998 4.200008,2.599998c-1.5,-0.399998 -2.200008,-0.599998 -3.700008,-0.899998c1.700008,5.299999 4.499996,10.700001 8.499996,14.700001c0,0 0,-0.099998 0.100014,-0.200005c2.100006,-6.199997 2.299988,-14.099998 0.200012,-21.499996c-0.300026,-0.89999 -0.600014,-1.89999 -0.900024,-2.799999c-1.099976,0.799999 -1.599976,1.299999 -2.699982,2.299999z" id="svg_19"/>
       <path fill="#3E4A57" d="m67.399986,48.200001c0.899994,-1.5 1.299995,-2.299999 2.199982,-3.700001c-3.699982,-7.700001 -8.299988,-14.199997 -14.499996,-19.699997c9.200008,14.399986 12.10001,29.699997 15.700008,45.399986c2,-6.300003 2.299988,-14.099998 0.200012,-21.5c-0.300026,-0.89999 -0.600014,-1.89999 -0.900024,-2.799999c-1.099976,0.799999 -1.599976,1.299999 -2.699982,2.299999l0,0.000011z" id="svg_20"/>
      </g>
      <g id="svg_21">
       <path fill="#323C46" d="m70.899986,48.900002c1,-1.5 1.5,-2.200001 2.399994,-3.600002c-3.100014,-7.899998 -7.299988,-14.499996 -13.60001,-20.100006c1.200008,4.300001 1.800018,8.600006 2.5,12.999996c1.39999,0.799999 1.999996,1.299999 3.39999,2.10001c-1.299988,-0.399998 -2,-0.60001 -3.199982,-1c0.5,4 1,8.100002 1.799988,12.200001c0.200012,1 0.399994,2 0.600014,2.900002c1.600006,1.099998 2.5,1.699997 4.100006,2.799999c-1.5,-0.5 -2.200005,-0.700001 -3.600006,-1.100002c1.700012,5.400002 3.600006,10.700005 7.399986,15.200005c0,0 0,-0.100014 0.100014,-0.200005c2.5,-6.099998 3.200012,-13.899998 1.700012,-21.5c-0.200012,-1 -0.400024,-1.899998 -0.700012,-2.899998c-1.199982,0.899998 -1.799988,1.299999 -2.899994,2.200001z" id="svg_22"/>
       <path fill="#3E4A57" d="m70.899986,48.900002c1,-1.5 1.5,-2.200001 2.399994,-3.600002c-3.100014,-7.899998 -7.299988,-14.499996 -13.60001,-20.100006c8.89999,14.799995 10.499996,30.199997 12.89999,45.899998c2.400017,-6.200005 3.200012,-13.900002 1.700012,-21.5c-0.200012,-1 -0.399994,-1.900002 -0.700012,-2.900002c-0.999969,0.900002 -1.599983,1.299999 -2.699982,2.200001l0.000008,0.000011z" id="svg_23"/>
      </g>
      <g id="svg_24">
       <path fill="#262E36" d="m55.700008,52.400002c-0.10001,-1.800003 -0.10001,-2.800003 -0.200008,-4.600002c-6,-5.200001 -12.299992,-10.10001 -17.499981,-16.299995c1.39999,5.199997 3.39999,10.099995 5.599991,15.099995c1.299999,0.200001 2,0.300003 3.39999,0.400002c-1.099991,0.299999 -1.700001,0.400002 -2.799992,0.700001c2.099991,3.899998 4.60001,7.60001 7.60001,10.700001c0.699982,0.799999 1.5,1.5 2.199982,2.199997c2,0 3.10001,0 5.10001,0.100002c-1.5,0.5 -2.199982,0.700001 -3.699982,1.10001c4.89999,4 10.500004,6.899986 15.89999,8.199997c0,0 0,-0.099998 0,-0.199997c-2,-7.299999 -7.200005,-13.60001 -12.300018,-18.799999c-0.699982,-0.700001 -1.5,-1.400002 -2.299992,-2.100002c-0.5,1.299999 -0.60001,2 -1,3.5l0,-0.000008z" id="svg_25"/>
       <path fill="#262E36" d="m55.700008,52.400002c-0.10001,-1.800003 -0.10001,-2.800003 -0.200008,-4.600002c-6,-5.200001 -12.299992,-10.10001 -17.499981,-16.299995c8.599991,15.599995 20.799999,26.599995 33.299999,38.299999c-2.100006,-7.400002 -7.200005,-13.600014 -12.300018,-18.800003c-0.699982,-0.700001 -1.5,-1.400002 -2.299992,-2.099998c-0.5,1.299999 -0.60001,2 -1,3.5z" id="svg_26"/>
      </g>
      <g id="svg_27">
       <path fill="#262E36" d="m62.799992,47.400002c-1.700012,-0.800003 -2.5,-1.200001 -4.200012,-2c-2.599979,-7.600002 -4.89999,-15.399998 -8.699978,-22.699997c4.199978,3.5 8,7.299999 11.799988,11.399994c-0.299988,1.300003 -0.5,1.900002 -0.799988,3.300003c0.699978,-0.900002 1,-1.400002 1.699978,-2.300003c2.900021,3.400002 5.400021,7.100002 7.300022,11.100002c0.5,1 0.899986,1.899998 1.199982,2.899998c-0.699982,1.900002 -1.099983,2.800003 -1.799995,4.700001c1,-1.200001 1.5,-1.799999 2.399994,-3c2,6 2.5,12.39999 1.5,17.89999c0,0 -0.100014,0 -0.199982,-0.099998c-5.900017,-4.800003 -9.800018,-11.900002 -12.800018,-18.799999c-0.39999,-0.900002 -0.799992,-1.900002 -1.199982,-2.900002c1.60001,0.200001 2.299992,0.299999 3.799992,0.5l0,0.000011z" id="svg_28"/>
       <path fill="#323C46" d="m62.799992,47.400002c-1.700012,-0.800003 -2.5,-1.200001 -4.200012,-2c-2.599979,-7.600002 -4.89999,-15.399998 -8.699978,-22.699997c10.89999,14.100006 17.199982,29.499996 23.199982,45.899994c-5.899994,-4.900002 -9.799992,-11.899998 -12.799992,-18.799999c-0.39999,-0.899998 -0.799992,-1.899998 -1.200012,-2.899998c1.500031,0.199997 2.200012,0.299999 3.700012,0.5z" id="svg_29"/>
      </g>
      <g id="svg_30">
       <path fill="#3A4552" d="m61.39999,48.5c0.299992,-1.900002 0.39999,-2.799999 0.60001,-4.599998c-6,-7 -12.400021,-13.299997 -18.700008,-19.899998c2.199997,5.1 4.10001,10.199997 6.10001,15.299995c1.39999,0.600002 2.10001,0.89999 3.60001,1.39999c-1.300022,0 -1.900021,-0.099998 -3.10001,-0.099998c1.699978,4.399998 3.699978,8.700001 6.10001,12.899998c0.599979,1 1.199978,1.900002 1.799988,2.800003c2,0.599998 3.10001,0.89999 5.200012,1.5c-1.60001,0.099998 -2.400021,0.099998 -4,0.099998c3.799988,5.299999 8.599979,9.899998 13.89999,12.899998c0,0 0,-0.100006 0,-0.199997c-0.200012,-7.600002 -3.200012,-15.799999 -7.800018,-22.700001c-0.599983,-0.900002 -1.299992,-1.799999 -2.000004,-2.700001c-0.599979,1.299999 -0.999969,2 -1.699978,3.299999l-0.000011,0.000011z" id="svg_31"/>
       <path fill="#262E36" d="m61.39999,48.5c0.299992,-1.900002 0.39999,-2.799999 0.60001,-4.599998c-6,-7 -12.400021,-13.299997 -18.700008,-19.899998c10.10001,15.399998 20,30.899998 29.499996,46.599995c-0.299988,-7.699997 -3.200005,-15.799999 -7.799988,-22.699997c-0.600014,-0.900002 -1.300018,-1.800003 -2,-2.700001c-0.5,1.299999 -0.89999,2 -1.60001,3.299999z" id="svg_32"/>
      </g>
     </g>
     <path fill="#687492" d="m96.299988,106.5c0.5,0.899986 0.299995,2 -0.600006,2.600014l0,0c-0.899994,0.5 -2,0.299988 -2.600014,-0.600014l-23.599976,-38.400002c-0.5,-0.900002 -0.300026,-2 0.599976,-2.599998l0,0c0.900024,-0.5 2,-0.300003 2.600014,0.599998l23.600006,38.400002z" id="svg_33"/>
     <path fill="#515B73" d="m76.799988,61.799999c1.299995,2.100002 -0.200005,7.000004 -4.299988,9.500004c-4.100014,2.5 -9.200008,1.599998 -10.5,-0.5c0,0 3.799988,-1.200005 7.899986,-3.700005c4,-2.5 6.899994,-5.299999 6.899994,-5.299999l0.000008,0z" id="svg_34"/>
    </g>
   </g>
  </g>
 </g>
</svg>