<?xml version="1.0" encoding="utf-8"?>
<!-- Generator: Adobe Illustrator 19.0.0, SVG Export Plug-In . SVG Version: 6.00 Build 0)  -->
<svg version="1.1" id="Lager_1" xmlns="http://www.w3.org/2000/svg" xmlns:xlink="http://www.w3.org/1999/xlink" x="0px" y="0px"
	 viewBox="0 0 132 132" style="enable-background:new 0 0 132 132;" xml:space="preserve">
<style type="text/css">
	.st0{fill:none;}
	.st1{fill:#D13899;}
	.st2{fill:#262E36;}
	.st3{fill:#323C46;}
	.st4{fill:#3E4A57;}
	.st5{fill:#3A4552;}
	.st6{fill:#687492;}
	.st7{fill:#515B73;}
</style>
<g>
	<title>background</title>
	<rect id="canvas_background" x="-1" y="-1" class="st0" width="134" height="134"/>
</g>
<g>
	<title>Layer 1</title>
	<g id="icons">
		<g id="duster">
			<circle id="label_2_" class="st1" cx="66" cy="66" r="65"/>
			<g id="icon_2_">
				<path id="svg_1" class="st2" d="M68.7,27.8c0.1,1.7,0,2.2,0,3.9c-1.4-2.3-3-4.5-4.7-6.5c0.2,1.2,0.3,2.5,0.4,3.7
					c-1.3-1.8-2.7-3.5-4.2-5.2c0.8,2.7,1.3,5.5,1.7,8.3c-2-3.2-4.1-6.2-6.3-9.2c0.5,1.9,0.8,3.9,1.1,5.8c-0.9-1.2-1.8-2.4-2.7-3.6
					c0.3,1.6,0.6,3.2,0.9,4.8c-1.3-1.9-2.6-3.8-3.9-5.7c0.4,1.8,0.7,3.5,1.1,5.2c-0.1,0-0.1-0.1-0.2-0.1c0.1,0.2,0.2,0.4,0.2,0.5
					c0.2,0.8,0.3,1.5,0.5,2.3c-0.2-0.1-0.3-0.2-0.5-0.3c-1.4-1.9-2.7-3.8-4-5.8c0.2,1.2,0.4,2.4,0.6,3.5c-0.7-0.4-1.4-0.9-2-1.3
					c0.9,1.3,1.8,2.7,2.6,4.1c0.1,0.3,0.1,0.6,0.2,0.9c-0.2-0.2-0.5-0.4-0.7-0.6c-0.9-1.3-1.7-2.7-2.5-4.1c0.1,0.8,0.1,1.6,0.2,2.4
					c-1-0.7-1.9-1.4-2.9-2.1c1.2,2,2.4,4.1,3.4,6.2c0,0.2,0.1,0.4,0.1,0.6c-0.6-0.5-1.2-1-1.9-1.5c-0.1-0.2-0.3-0.3-0.4-0.5
					c0,0.1,0,0.1,0,0.2c-1.4-1.1-2.8-2.2-4.2-3.3c1.1,2,2.2,4,3.3,6c-1.3-1-2.6-2-3.9-3c0.7,1.3,1.3,2.7,2,4
					c-1.6-1.1-3.2-2.4-4.7-3.7c1.6,3.4,3.4,6.6,5.3,9.8c-2.3-1.6-4.5-3.3-6.6-5.3c0.8,2.1,1.7,4.1,2.7,6.1c-1.1-0.6-2.1-1.3-3.1-2
					c1,2.5,2.3,4.9,3.7,7.2c-1.5-0.8-2-0.9-3.5-1.8c1.8,4.3,3.3,7.7,6.5,11.2c1.3-0.4,2-0.6,3.3-1c-1,0.7-1.5,1.1-2.5,1.8
					c2.6,2.6,5.7,5,9.2,6.8c0.8,0.4,1.7,0.8,2.5,1.1c1.7-0.6,2.6-0.9,4.2-1.5c0.1,0,0.1,0,0.2,0.1c-1,0.7-1.7,1.2-2.8,2
					c4.6,1.6,9.5,2.4,14,2.2c0.4,0.1,0.8,0.2,1.2,0.3l0.1,0.1c0.1,0.1,0.2,0.1,0.2,0.1v-0.1c0.1,0,0.2,0,0.3,0.1c0.1,0,0.2,0,0.2,0
					c0-0.1-0.1-0.3-0.1-0.4l0,0c0-0.1,0.1-0.1,0.1-0.2c0.1,0,0.2,0,0.2,0l0,0c0.1,0.1,0.2,0.2,0.3,0.3c0,0,0-0.1,0.1-0.2
					c0-0.1,0-0.2,0.1-0.3h0.1c0,0,0-0.1,0-0.2v-0.1c0.1-0.4,0.2-0.8,0.3-1.2c2.2-4,3.7-8.7,4.4-13.5c-1.2,0.6-1.9,1-3,1.6
					c0-0.1,0-0.1,0-0.2c1.2-1.1,1.9-1.8,3.2-3c0.1-0.9,0.1-1.8,0.1-2.8c0-3.9-0.7-7.8-1.9-11.3c-1.1,0.6-1.6,0.9-2.7,1.4
					c1-1,1.4-1.5,2.4-2.5C74.1,34.2,71.7,31.3,68.7,27.8L68.7,27.8z"/>
				<g id="svg_2">
					<g id="svg_3">
						<path id="svg_4" class="st3" d="M57.9,47.9c-0.1-1.8-0.1-2.7-0.2-4.5c-6.1-5.3-12.5-10.2-18-16.4c1.8,5,3.9,9.8,6.2,14.6
							c1.3,0.3,2,0.4,3.4,0.6c-1.1,0.2-1.7,0.3-2.8,0.5c2.1,3.9,4.5,7.6,7.4,10.9c0.7,0.8,1.4,1.6,2.1,2.3c2,0.1,3,0.2,5.1,0.3
							c-1.5,0.4-2.3,0.6-3.7,1c4.7,4.2,10.1,7.5,15.5,9.1c0,0,0-0.1,0-0.2c-1.5-7.5-6.5-14-11.7-19.4c-0.7-0.7-1.5-1.5-2.3-2.2
							C58.5,45.8,58.3,46.5,57.9,47.9L57.9,47.9z"/>
						<path id="svg_5" class="st4" d="M57.9,47.9c-0.1-1.8-0.1-2.7-0.2-4.5c-6.1-5.3-12.5-10.2-18-16.4C48.9,41.9,61,53.5,72.8,66
							c-1.6-7.6-6.5-14-11.7-19.4c-0.7-0.7-1.5-1.5-2.3-2.2C58.5,45.8,58.3,46.5,57.9,47.9L57.9,47.9z"/>
					</g>
					<g id="svg_6">
						<path id="svg_7" class="st3" d="M62.5,46.2c0.5-1.7,0.8-2.5,1.2-4.2c-5.1-7.2-10.8-13.4-17.1-19.3c2.1,4.5,3.8,9.2,5.3,13.8
							c1.3,0.7,2,1,3.4,1.7c-1.2-0.2-1.8-0.3-3-0.5c1.4,4.2,2.8,8.3,4.5,12.4c0.4,1,0.9,1.9,1.3,2.8c1.9,0.8,2.8,1.2,4.7,2
							c-1.5-0.1-2.3-0.2-3.8-0.4c3.2,5.3,6.6,10.2,11.5,13.7c0,0,0-0.1,0-0.2c0.9-7.2-1.1-15-4.4-22.1c-0.4-0.9-1-1.8-1.5-2.7
							C63.7,44.5,63.3,45.1,62.5,46.2L62.5,46.2z"/>
						<path id="svg_8" class="st4" d="M62.5,46.2c0.5-1.7,0.8-2.5,1.2-4.2c-5.1-7.2-10.8-13.4-17.1-19.3
							c10.1,14.3,17,29.6,23.9,45.4c0.9-7.3-1.1-15-4.4-22.1c-0.4-0.9-1-1.8-1.5-2.7C63.7,44.5,63.3,45.1,62.5,46.2L62.5,46.2z"/>
					</g>
					<g id="svg_9">
						<path id="svg_10" class="st3" d="M55,57c-0.3-1.8-0.5-2.7-0.8-4.5c-6.2-3.8-12.6-7.4-18.4-12.1c1.4,4.8,3.7,9.4,6.6,13.6
							c1.4-0.2,2.1-0.3,3.5-0.5c-1.1,0.6-1.7,0.9-2.8,1.4c2.4,3.1,5.4,6.2,8.8,8.6c0.8,0.6,1.7,1.1,2.5,1.6c2-0.4,3-0.6,5-0.9
							C58,64.9,57.3,65.3,56,66c5.3,2.8,11.1,4.6,16.5,4.9c0,0,0-0.1-0.1-0.2c-3-6.8-8.9-11.8-14.4-15.8c-0.8-0.6-1.6-1.1-2.5-1.7
							C55.2,54.8,55.1,55.5,55,57z"/>
						<path id="svg_11" class="st4" d="M55,57c-0.3-1.8-0.5-2.7-0.8-4.5c-6.2-3.8-12.6-7.4-18.4-12.1C45.7,54.5,59.3,62,72.3,70.7
							c-3.2-6.9-8.9-11.8-14.4-15.8c-0.8-0.6-1.6-1.1-2.5-1.7C55.2,54.8,55.1,55.5,55,57z"/>
					</g>
					<g id="svg_12">
						<path id="svg_13" class="st3" d="M55.6,53.3c-0.2-1.8-0.4-2.7-0.6-4.5c-6-4.1-12.3-8-17.9-13.2c1.4,4.8,3.5,9.5,6.3,13.8
							c1.3-0.1,2-0.1,3.4-0.2c-1.1,0.5-1.6,0.7-2.7,1.2c2.2,3.3,5,6.5,8.3,9.2c0.8,0.6,1.6,1.2,2.4,1.8c2-0.3,3-0.4,5-0.7
							c-1.4,0.6-2.1,1-3.5,1.6c5.1,3.2,10.8,5.3,16.2,5.8c0,0,0-0.1-0.1-0.2c-2.6-7-8.3-12.3-13.7-16.6c-0.8-0.6-1.6-1.2-2.4-1.8
							C56,51.1,55.9,51.8,55.6,53.3L55.6,53.3z"/>
						<path id="svg_14" class="st4" d="M55.6,53.3c-0.2-1.8-0.4-2.7-0.6-4.5c-6-4.1-12.3-8-17.9-13.2C46.5,49.9,59.5,58.4,72.2,68
							c-2.7-7.1-8.3-12.3-13.7-16.6c-0.8-0.6-1.6-1.2-2.4-1.8C56,51.1,55.9,51.8,55.6,53.3L55.6,53.3z"/>
					</g>
					<g id="svg_15">
						<path id="svg_16" class="st2" d="M59.2,48.2c0.2-1.7,0.3-2.6,0.4-4.3C54,38.1,48,32.9,42.5,27.1c1.7,4.7,3.5,9.4,5.4,14
							c1.3,0.4,2,0.5,3.4,0.9c-1.2,0.1-1.7,0.2-2.9,0.3C50,46,52,49.9,54.5,53.4c0.6,0.8,1.2,1.6,1.8,2.4c1.9,0.3,2.9,0.5,4.9,0.8
							c-1.5,0.2-2.3,0.4-3.8,0.6c4.3,4.3,8.6,8.1,13.8,10.1c0,0,0-0.1,0-0.2c-0.5-7.1-4.2-14-8.6-19.8c-0.6-0.8-1.3-1.5-1.9-2.3
							C60.1,46.3,59.8,46.9,59.2,48.2L59.2,48.2z"/>
						<path id="svg_17" class="st4" d="M59.2,48.2c0.2-1.7,0.3-2.6,0.4-4.3C54,38.1,48,32.9,42.5,27.1c8.8,13.9,18.9,26.8,28.7,40
							c-0.6-7.2-4.2-14-8.6-19.8c-0.6-0.8-1.3-1.5-1.9-2.3C60.1,46.3,59.8,46.9,59.2,48.2z"/>
					</g>
					<g id="svg_18">
						<path id="svg_19" class="st3" d="M67.4,48.2c0.9-1.5,1.3-2.3,2.2-3.7c-3.7-7.7-8.3-14.2-14.5-19.7c1.5,4.3,2.3,8.7,3.2,13.1
							c1.3,0.8,2,1.2,3.4,2c-1.3-0.3-1.9-0.5-3.2-0.9c0.7,4,1.4,8.1,2.4,12.1c0.2,1,0.5,1.9,0.8,2.9c1.7,1.1,2.5,1.6,4.2,2.6
							c-1.5-0.4-2.2-0.6-3.7-0.9c1.7,5.3,4.5,10.7,8.5,14.7c0,0,0-0.1,0.1-0.2c2.1-6.2,2.3-14.1,0.2-21.5c-0.3-0.9-0.6-1.9-0.9-2.8
							C69,46.7,68.5,47.2,67.4,48.2z"/>
						<path id="svg_20" class="st4" d="M67.4,48.2c0.9-1.5,1.3-2.3,2.2-3.7c-3.7-7.7-8.3-14.2-14.5-19.7
							c9.2,14.4,12.1,29.7,15.7,45.4c2-6.3,2.3-14.1,0.2-21.5c-0.3-0.9-0.6-1.9-0.9-2.8C69,46.7,68.5,47.2,67.4,48.2L67.4,48.2z"/>
					</g>
					<g id="svg_21">
						<path id="svg_22" class="st3" d="M70.9,48.9c1-1.5,1.5-2.2,2.4-3.6c-3.1-7.9-7.3-14.5-13.6-20.1c1.2,4.3,1.8,8.6,2.5,13
							c1.4,0.8,2,1.3,3.4,2.1c-1.3-0.4-2-0.6-3.2-1c0.5,4,1,8.1,1.8,12.2c0.2,1,0.4,2,0.6,2.9c1.6,1.1,2.5,1.7,4.1,2.8
							c-1.5-0.5-2.2-0.7-3.6-1.1c1.7,5.4,3.6,10.7,7.4,15.2c0,0,0-0.1,0.1-0.2c2.5-6.1,3.2-13.9,1.7-21.5c-0.2-1-0.4-1.9-0.7-2.9
							C72.6,47.6,72,48,70.9,48.9z"/>
						<path id="svg_23" class="st4" d="M70.9,48.9c1-1.5,1.5-2.2,2.4-3.6c-3.1-7.9-7.3-14.5-13.6-20.1C68.6,40,70.2,55.4,72.6,71.1
							c2.4-6.2,3.2-13.9,1.7-21.5c-0.2-1-0.4-1.9-0.7-2.9C72.6,47.6,72,48,70.9,48.9L70.9,48.9z"/>
					</g>
					<g id="svg_24">
						<path id="svg_25" class="st2" d="M55.7,52.4c-0.1-1.8-0.1-2.8-0.2-4.6c-6-5.2-12.3-10.1-17.5-16.3c1.4,5.2,3.4,10.1,5.6,15.1
							c1.3,0.2,2,0.3,3.4,0.4c-1.1,0.3-1.7,0.4-2.8,0.7c2.1,3.9,4.6,7.6,7.6,10.7c0.7,0.8,1.5,1.5,2.2,2.2c2,0,3.1,0,5.1,0.1
							c-1.5,0.5-2.2,0.7-3.7,1.1c4.9,4,10.5,6.9,15.9,8.2c0,0,0-0.1,0-0.2c-2-7.3-7.2-13.6-12.3-18.8c-0.7-0.7-1.5-1.4-2.3-2.1
							C56.2,50.2,56.1,50.9,55.7,52.4L55.7,52.4z"/>
						<path id="svg_26" class="st2" d="M55.7,52.4c-0.1-1.8-0.1-2.8-0.2-4.6c-6-5.2-12.3-10.1-17.5-16.3
							c8.6,15.6,20.8,26.6,33.3,38.3C69.2,62.4,64.1,56.2,59,51c-0.7-0.7-1.5-1.4-2.3-2.1C56.2,50.2,56.1,50.9,55.7,52.4z"/>
					</g>
					<g id="svg_27">
						<path id="svg_28" class="st2" d="M62.8,47.4c-1.7-0.8-2.5-1.2-4.2-2C56,37.8,53.7,30,49.9,22.7c4.2,3.5,8,7.3,11.8,11.4
							c-0.3,1.3-0.5,1.9-0.8,3.3c0.7-0.9,1-1.4,1.7-2.3c2.9,3.4,5.4,7.1,7.3,11.1c0.5,1,0.9,1.9,1.2,2.9c-0.7,1.9-1.1,2.8-1.8,4.7
							c1-1.2,1.5-1.8,2.4-3c2,6,2.5,12.4,1.5,17.9c0,0-0.1,0-0.2-0.1c-5.9-4.8-9.8-11.9-12.8-18.8c-0.4-0.9-0.8-1.9-1.2-2.9
							C60.6,47.1,61.3,47.2,62.8,47.4L62.8,47.4z"/>
						<path id="svg_29" class="st3" d="M62.8,47.4c-1.7-0.8-2.5-1.2-4.2-2C56,37.8,53.7,30,49.9,22.7c10.9,14.1,17.2,29.5,23.2,45.9
							c-5.9-4.9-9.8-11.9-12.8-18.8c-0.4-0.9-0.8-1.9-1.2-2.9C60.6,47.1,61.3,47.2,62.8,47.4z"/>
					</g>
					<g id="svg_30">
						<path id="svg_31" class="st5" d="M61.4,48.5c0.3-1.9,0.4-2.8,0.6-4.6c-6-7-12.4-13.3-18.7-19.9c2.2,5.1,4.1,10.2,6.1,15.3
							c1.4,0.6,2.1,0.9,3.6,1.4c-1.3,0-1.9-0.1-3.1-0.1c1.7,4.4,3.7,8.7,6.1,12.9c0.6,1,1.2,1.9,1.8,2.8c2,0.6,3.1,0.9,5.2,1.5
							c-1.6,0.1-2.4,0.1-4,0.1c3.8,5.3,8.6,9.9,13.9,12.9c0,0,0-0.1,0-0.2c-0.2-7.6-3.2-15.8-7.8-22.7c-0.6-0.9-1.3-1.8-2-2.7
							C62.5,46.5,62.1,47.2,61.4,48.5L61.4,48.5z"/>
						<path id="svg_32" class="st2" d="M61.4,48.5c0.3-1.9,0.4-2.8,0.6-4.6c-6-7-12.4-13.3-18.7-19.9c10.1,15.4,20,30.9,29.5,46.6
							c-0.3-7.7-3.2-15.8-7.8-22.7c-0.6-0.9-1.3-1.8-2-2.7C62.5,46.5,62.1,47.2,61.4,48.5z"/>
					</g>
				</g>
				<path id="svg_33" class="st6" d="M96.3,106.5c0.5,0.9,0.3,2-0.6,2.6l0,0c-0.9,0.5-2,0.3-2.6-0.6L69.5,70.1
					c-0.5-0.9-0.3-2,0.6-2.6l0,0c0.9-0.5,2-0.3,2.6,0.6L96.3,106.5z"/>
				<path id="svg_34" class="st7" d="M76.8,61.8c1.3,2.1-0.2,7-4.3,9.5c-4.1,2.5-9.2,1.6-10.5-0.5c0,0,3.8-1.2,7.9-3.7
					C73.9,64.6,76.8,61.8,76.8,61.8L76.8,61.8z"/>
			</g>
		</g>
	</g>
</g>
</svg>
