<?xml version="1.0" encoding="utf-8"?>
<!-- Generator: Adobe Illustrator 19.0.0, SVG Export Plug-In . SVG Version: 6.00 Build 0)  -->
<svg version="1.1" id="Lager_1" xmlns="http://www.w3.org/2000/svg" xmlns:xlink="http://www.w3.org/1999/xlink" x="0px" y="0px"
	 viewBox="0 0 132 132" style="enable-background:new 0 0 132 132;" xml:space="preserve">
<style type="text/css">
	.st0{fill:none;}
	.st1{fill:#D13899;}
	.st2{fill:#F5B887;}
	.st3{fill:#FFCC99;}
	.st4{fill:#503431;}
	.st5{fill:#323C46;}
	.st6{fill:#FFFEF7;}
</style>
<g>
	<title>background</title>
	<rect id="canvas_background" x="-1" y="-1" class="st0" width="134" height="134"/>
</g>
<g>
	<title>Layer 1</title>
	<g id="icons">
		<g id="maid">
			<circle id="label_4_" class="st1" cx="66" cy="66.5" r="65"/>
			<g id="icon_4_">
				<path id="svg_1" class="st2" d="M66.9,127.1L48.9,94c8.9-4.9,8.8-12.9,8.8-12.9H74c0,0,0.4,8.1,9.2,12.9L66.9,127.1z"/>
				<g id="svg_2">
					<path id="svg_3" class="st3" d="M87,52.4c0,13.4-9.4,32.4-21,32.4s-21-19-21-32.4s9.4-24.3,21-24.3C77.5,28.1,87,38.9,87,52.4z
						"/>
					<path id="svg_4" class="st4" d="M89.2,52.9c0-14.8-10.4-26.8-23.2-26.8c-12.8,0-23.2,12-23.2,26.8c0,0.7,0,1.5,0.1,2.3
						c0,0.3,0.1,0.6,0.2,0.9l4.4,11.2c-2-17.6,7.1-16.7,7.6-25.4c-2.6,11.4,32.8,2.8,33.1,37.8"/>
				</g>
				<path id="svg_6" class="st5" d="M96.6,123.8c4.3-2.3,8.3-5,11.9-8.2l-1.4-10.1c-0.4-2.8-2.3-5.1-5-5.8l-18.9-5.6L66,120.2
					L48.8,94.1l-18.9,5.6c-2.7,0.8-4.6,3.1-5,5.9l-1.4,10.1c3.7,3.2,7.7,6,12,8.3l0,0c0,0,0.1,0,0.1,0.1c0,0,0,0,0.1,0l0,0
					c9,4.8,19.4,7.5,30.3,7.5s21.3-2.7,30.3-7.5l0,0c0,0,0,0,0.1,0C96.4,123.9,96.5,123.9,96.6,123.8L96.6,123.8z"/>
				<path id="svg_7_1_" class="st6" d="M64.8,124"/>
				<g id="svg_9">
					<path id="svg_10" class="st5" d="M51.6,92l-7.8,3.1c-2,0.8-2.4,3.4-0.8,4.8l23,20.3L51.6,92z"/>
					<path id="svg_11" class="st5" d="M80.4,92l7.8,3.1c2,0.8,2.4,3.4,0.8,4.8l-23,20.3L80.4,92z"/>
				</g>
			</g>
		</g>
	</g>
</g>
</svg>
