<svg width="132" height="132" xmlns="http://www.w3.org/2000/svg">
 <g>
  <title>background</title>
  <rect x="-1" y="-1" width="134" height="134" id="canvas_background" fill="none"/>
 </g>

 <g>
  <title>Layer 1</title>
  <g id="icons">
   <g id="maid_2">
    <circle id="label_5_" fill="#78C0A8" cx="66" cy="66.5" r="65"/>
    <g id="icon_5_">
     <path fill="#AD522D" d="m39,86.899994c5.200012,-10.800003 1.299988,-35.599998 1.299988,-35.599998c0,-13.900002 11.600006,-25.099998 26,-25.099998l-0.599976,0c14.299988,0 26,11.199997 26,25.099998c0,0 -3.900024,24.800003 1.299988,35.599998l-54,0z" id="svg_1"/>
     <path fill="#F5B887" d="m66.899994,127.100006l-18,-33.099991c8.899994,-4.900009 8.799988,-12.900009 8.799988,-12.900009l16.300018,0c0,0 0.399994,8.100006 9.200012,12.900009l-16.300018,33.099991z" id="svg_2"/>
     <path fill="#FFCC99" d="m87,52.400002c0,13.400002 -9.399994,32.400002 -21,32.400002c-11.600006,0 -21,-19 -21,-32.400002c0,-13.400002 9.399994,-24.300003 21,-24.300003c11.5,0 21,10.800003 21,24.300003z" id="svg_3"/>
     <path fill="#323C46" d="m108.5,115.600006l-1.399994,-10.100006c-0.399994,-2.799988 -2.300018,-5.099991 -5,-5.799988l-18.899994,-5.600006l-17.300018,11.399994l-17.100006,-11.399994l-18.899994,5.600006c-2.699982,0.799988 -4.600006,3.099991 -5,5.899994l-1.399994,10.100006c3.700012,3.199997 7.700012,5.899994 12,8.199997l0,0c9.100006,4.800003 19.5,7.599991 30.5,7.599991c11,0 21.299988,-2.699997 30.299988,-7.5l0,0c4.400024,-2.300003 8.5,-5.100006 12.200012,-8.399994z" id="svg_4"/>
     <g id="svg_5">
      <path fill="#FFFEF7" d="m55.799988,87.399994c0.299988,-0.300003 -1.700012,7.300003 3.299988,11.699997c5.100006,4.5 5.5,5 6.800018,6.199997c0,0 -0.100006,9 -6.399994,9c-0.100006,0 -0.300018,0 -0.400024,0c-6.399994,-0.399994 -10.399994,-10 -12.299988,-14.699997l-0.299988,-0.599991c-1,-2.400009 -1.200012,-4 -1.300018,-4.100006c0.200012,0.200012 7.200012,-4.699997 10.600006,-7.5z" id="svg_6"/>
      <path fill="#FFFEF7" d="m76.200012,87.399994c-0.299988,-0.300003 1.700012,7.300003 -3.299988,11.699997c-5.100006,4.5 -5.5,5 -6.800018,6.199997c0,0 0.100006,9 6.399994,9c0.100006,0 0.300018,0 0.400024,0c6.399994,-0.399994 10.399994,-10 12.299988,-14.699997l0.299988,-0.599991c1,-2.400009 1.200012,-4 1.300018,-4.100006c-0.200012,0.200012 -7.200012,-4.699997 -10.600006,-7.5z" id="svg_7"/>
     </g>
     <polygon fill="#FFFEF7" points="43.3 122.9 36.2 122.9 36.2 97.7 43.3 95.6" id="svg_8"/>
     <polygon fill="#FFFEF7" points="88.7 122.9 95.8 122.9 95.8 97.7 88.7 95.6" id="svg_9"/>
     <g id="svg_10">
      <path fill="#FFFEF7" d="m94.399994,119.300003l-56.799988,0c-2.100006,0 -3.800018,1.5 -4.200012,3.399994c9.600006,5.600006 20.700012,8.800003 32.600006,8.800003c11.899994,0 23,-3.199997 32.600006,-8.800003c-0.399994,-1.899994 -2.100006,-3.399994 -4.200012,-3.399994z" id="svg_11"/>
     </g>
     <path fill="#AD522D" d="m88.600006,60.900002c0,0 5.799988,-32.900002 -23,-32.900002c0,0 -22.399994,-3.900002 -22.399994,32.700005c0,0 8.199982,-3.200005 12.299988,-14.700005c0,0 10.5,15.599998 33.100006,14.900002z" id="svg_12"/>
     <path fill="#FFFEF7" d="m84,40.400002c-0.799988,-1.900002 -2.5,-3 -4.299988,-3.099998c0,-1.400002 -0.600006,-2.900002 -1.700012,-4c-1.399994,-1.5 -3.399994,-2 -5.100006,-1.700005c-0.899994,-2.099998 -3.600006,-3.599998 -6.799988,-3.599998s-6,1.5 -6.800018,3.599998c-1.699982,-0.299995 -3.699982,0.200005 -5.099976,1.700005c-1.100006,1.099998 -1.700012,2.599998 -1.700012,4c-1.799988,0.099998 -3.5,1.199997 -4.299988,3.099998c-0.700012,1.699997 -0.600006,3.5 0.299988,4.800003l0,0c0,0 0,0 0,0c0.299988,-0.100006 6.600006,-4.400002 17.700012,-4.400002c10.699982,0 17.5,4.299995 17.699982,4.400002c0,0 0,0 0,0l0,0c0.700012,-1.300003 0.800018,-3.200005 0.100006,-4.800003z" id="svg_13"/>
     <circle fill="#FFFEF7" cx="65.9" cy="115.6" r="1.2" id="svg_14"/>
    </g>
   </g>
  </g>
 </g>
</svg>