<svg width="132" height="132" xmlns="http://www.w3.org/2000/svg">
 <g>
  <title>background</title>
  <rect x="-1" y="-1" width="134" height="134" id="canvas_background" fill="none"/>
 </g>

 <g>
  <title>Layer 1</title>
  <g id="icons">
   <g id="maid">
    <circle id="label_4_" fill="#FF6F69" cx="66" cy="66.5" r="65"/>
    <g id="icon_4_">
     <path fill="#F5B887" d="m66.900002,127.100006l-18,-33.099991c8.900002,-4.900009 8.800003,-12.900009 8.800003,-12.900009l16.299995,0c0,0 0.399994,8.100006 9.199997,12.900009l-16.299995,33.099991z" id="svg_1"/>
     <g id="svg_2">
      <path fill="#FFCC99" d="m87,52.400002c0,13.400002 -9.399994,32.400002 -21,32.400002c-11.599998,0 -21,-19 -21,-32.400002c0,-13.400002 9.400002,-24.300003 21,-24.300003c11.5,0 21,10.800003 21,24.300003z" id="svg_3"/>
      <path fill="#503431" d="m89.199997,52.900002c0,-14.800003 -10.399994,-26.800003 -23.200005,-26.800003c-12.799995,0 -23.199997,12 -23.199997,26.800003c0,0.699997 0,1.5 0.099998,2.300003c0,0.299995 0.099998,0.599998 0.200005,0.899994l4.399994,11.200005c-2,-17.599998 7.100006,-16.700005 7.600006,-25.400002c-2.600006,11.400002 32.799995,2.800003 33.099998,37.799995" id="svg_4"/>
      <path fill="#FFFEF7" d="m81.899994,39.5c-0.699997,-1.900002 -2.300003,-3 -3.800003,-3.099998c0,-1.400002 -0.5,-2.900002 -1.5,-4c-1.300003,-1.5 -3,-2 -4.5,-1.700005c-0.800003,-2.099998 -3.199997,-3.599998 -6,-3.599998c-2.899994,0 -5.299995,1.5 -6,3.599998c-1.5,-0.299995 -3.299995,0.200005 -4.5,1.700005c-1,1.099998 -1.5,2.599998 -1.5,4c-1.599998,0.099998 -3.099998,1.199997 -3.799995,3.099998c-0.700005,1.699997 -0.5,3.5 0.199997,4.800003l0,0c0,0 0,0 0,0c0.200005,-0.100006 5.800003,-4.400002 15.700005,-4.400002c9.5,0 15.5,4.299995 15.699997,4.400002c0,0 0,0 0,0l0,0c0.5,-1.300003 0.700012,-3.100006 0,-4.800003z" id="svg_5"/>
     </g>
     <path fill="#323C46" d="m96.600006,123.800003c4.300003,-2.300003 8.300003,-5 11.899994,-8.199997l-1.399994,-10.100006c-0.399994,-2.800003 -2.300003,-5.099991 -5,-5.800003l-18.899994,-5.599991l-17.200012,26.099991l-17.200005,-26.100006l-18.899994,5.600006c-2.700005,0.800003 -4.599998,3.100006 -5,5.899994l-1.400003,10.100006c3.699999,3.199997 7.699999,6 12.000002,8.300003l0,0c0,0 0.099998,0 0.099998,0.099991c0,0 0,0 0.099998,0l0,0c9,4.800003 19.400002,7.5 30.300003,7.5c10.899994,0 21.300003,-2.699997 30.300003,-7.5l0,0c0,0 0,0 0.099991,0c0,-0.199997 0.100006,-0.199997 0.200012,-0.299988l0,0z" id="svg_6"/>
     <circle fill="#FFFEF7" cx="66" cy="124" r="1.2" id="svg_7"/>
     <circle fill="#FFFEF7" cx="66" cy="128.3" r="1.2" id="svg_8"/>
     <g id="svg_9">
      <path fill="#FFFEF7" d="m51.599998,92l-7.800003,3.100006c-2,0.799988 -2.399994,3.399994 -0.799995,4.799988l23,20.300003l-14.400002,-28.199997z" id="svg_10"/>
      <path fill="#FFFEF7" d="m80.399994,92l7.800003,3.100006c2,0.799988 2.399994,3.399994 0.800003,4.799988l-23.000008,20.300003l14.400002,-28.199997z" id="svg_11"/>
     </g>
    </g>
   </g>
  </g>
 </g>
</svg>