<?xml version="1.0" encoding="utf-8"?>
<!-- Generator: Adobe Illustrator 19.0.0, SVG Export Plug-In . SVG Version: 6.00 Build 0)  -->
<svg version="1.1" id="Lager_1" xmlns="http://www.w3.org/2000/svg" xmlns:xlink="http://www.w3.org/1999/xlink" x="0px" y="0px"
	 viewBox="0 0 132 132" style="enable-background:new 0 0 132 132;" xml:space="preserve">
<style type="text/css">
	.st0{fill:none;}
	.st1{fill:#D13899;}
	.st2{fill:#B1E8F2;}
	.st3{fill:#323C46;}
	.st4{fill:#F2F1DE;}
	.st5{fill:#3E4A57;}
</style>
<g>
	<title>background</title>
	<rect id="canvas_background" x="-1" y="-1" class="st0" width="132" height="132"/>
</g>
<g>
	<g id="icons">
		<g id="spray_cleaner">
			<circle id="label_3_" class="st1" cx="66" cy="66.5" r="65"/>
			<g id="icon_3_">
				<g id="svg_1">
					<path id="svg_2" class="st2" d="M76.1,52.3c-2.5,0.3-10.1,0-12.6,0c-1.3,0-2.5,1.3-2.5,2.7c0,4.9,5.2,2.8,5.2,7.8H83
						C83.4,63.7,78.2,52,76.1,52.3z"/>
					<path id="svg_3" class="st2" d="M86.2,85.5c0-0.3,0-0.5,0-0.8c0-0.4,0-0.9,0-1.3s0-0.7,0-1.1c0-0.3,0-0.6,0-0.9
						c0-0.5-0.1-0.9-0.1-1.4c0-0.1,0-0.3,0-0.4c-0.5-7.4-1.8-13-3.3-17.3l-16.6,0.2c0,7.6-17.7,10.1-17.7,22.8V103
						c0,2.5,2.5,5.1,5.1,5.1h25.3c2.5,0,7.6-2.5,7.6-20.2C86.2,87,86.2,86.2,86.2,85.5L86.2,85.5z"/>
				</g>
				<g id="Nut_1_">
					<rect id="svg_5" x="63.5" y="44.7" class="st3" width="12.6" height="7.6"/>
				</g>
				<path id="svg_6" class="st3" d="M48.3,47.3c0,1.3,1.3,2.5,2.5,2.5c2.5,0,12.6-7.6,12.6-10.1v-2.5h-5.1
					C58.4,39.7,48.3,46,48.3,47.3z"/>
				<path id="svg_7" class="st4" d="M86.2,34.6c0,2.5-10.1,7.6-10.1,10.1H63.5c0-2.5-7.6-7.6-10.1-7.6V27l0,0
					C78.6,27.1,86.2,32.1,86.2,34.6z"/>
				<path id="svg_8" class="st5" d="M48.3,27.1h5.1v10.1h-5.1c-1.4,0-2.5-1.1-2.5-2.5v-5.1C45.8,28.2,46.9,27.1,48.3,27.1z"/>
			</g>
		</g>
	</g>
</g>
</svg>
