<svg width="132" height="132" xmlns="http://www.w3.org/2000/svg">

 <g>
  <title>background</title>
  <rect fill="none" id="canvas_background" height="132" width="132" y="-1" x="-1"/>
 </g>
 <g>
  <g id="icons">
   <g id="spray_cleaner">
    <circle r="65" cy="67.499996" cx="66" fill="#687492" id="label_3_"/>
    <g id="icon_3_">
     <g id="svg_1">
      <path id="svg_2" d="m76.1,52.299996c-2.5,0 -10.1,0 -12.6,0c-1.3,0 -2.5,1.3 -2.5,2.7c0,4.9 5.1,2.4 5.1,7.4l16.6,-0.2c1.4,4.3 -4.4,-9.9 -6.6,-9.9z" fill="#B1E8F2"/>
      <path id="svg_3" d="m86.2,85.499996c0,-0.3 0,-0.5 0,-0.8c0,-0.4 0,-0.9 0,-1.3c0,-0.4 0,-0.7 0,-1.1c0,-0.3 0,-0.6 0,-0.9c0,-0.5 -0.1,-0.9 -0.1,-1.4c0,-0.1 0,-0.3 0,-0.4c-0.5,-7.4 -1.8,-13 -3.3,-17.3l-16.6,0.2c0,7.6 -17.7,10.1 -17.7,22.8l0,17.7c0,2.5 2.5,5.1 5.1,5.1l25.3,0c2.5,0 7.6,-2.5 7.6,-20.2c-0.3,-0.9 -0.3,-1.7 -0.3,-2.4z" fill="#7DCCDB"/>
     </g>
     <path id="svg_4" d="m78.6,87.699996c0,-12.6 -2.5,-15.2 -5.1,-15.2c-5.1,0 -17.7,5.5 -17.7,8.9l0,16.3c0,1.3 1.3,2.5 2.5,2.5l15.2,0c2.6,0.2 5.1,0.2 5.1,-12.5z" fill="#FFFEF7" clip-rule="evenodd" fill-rule="evenodd"/>
     <g id="Nut_1_">
      <rect id="svg_5" height="7.6" width="12.6" fill="#323C46" y="44.699996" x="63.5"/>
     </g>
     <path id="svg_6" d="m48.3,47.299996c0,1.3 1.3,2.5 2.5,2.5c2.5,0 12.6,-7.6 12.6,-10.1l0,-2.5l-5.1,0c0.1,2.5 -10,8.8 -10,10.1z" fill="#323C46" clip-rule="evenodd" fill-rule="evenodd"/>
     <path id="svg_7" d="m86.2,34.599996c0,2.5 -10.1,7.6 -10.1,10.1l-12.6,0c0,-2.5 -7.6,-7.6 -10.1,-7.6l0,-10.1l0,0c25.2,0.1 32.8,5.1 32.8,7.6z" fill="#F2F1DE" clip-rule="evenodd" fill-rule="evenodd"/>
     <path id="svg_8" d="m48.3,27.099996l5.1,0l0,10.1l-5.1,0c-1.4,0 -2.5,-1.1 -2.5,-2.5l0,-5.1c0,-1.4 1.1,-2.5 2.5,-2.5z" fill="#3E4A57" clip-rule="evenodd" fill-rule="evenodd"/>
     <path id="svg_9" d="m74.8,100.399996l-18.9,0l0,-18.9l4.2,0c8.1,0 14.6,6.6 14.6,14.6l0,4.3l0.1,0z" fill="#FF6F69" clip-rule="evenodd" fill-rule="evenodd"/>
     <path id="svg_10" d="m69.8,100.399996l-13.9,0l0,-13.9l3.1,0c6,0 10.8,4.8 10.8,10.8l0,3.1z" fill="#FFD37A" clip-rule="evenodd" fill-rule="evenodd"/>
    </g>
   </g>
  </g>
 </g>
</svg>