<svg width="132" height="132" xmlns="http://www.w3.org/2000/svg">

 <g>
  <title>background</title>
  <rect fill="none" id="canvas_background" height="134" width="134" y="-1" x="-1"/>
 </g>
 <g>
  <title>Layer 1</title>
  <g id="icons">
   <g id="vacuum_cleaner">
    <circle r="65" cy="65.999995" cx="65.999997" fill="#72B9C7" id="label"/>
    <g id="icon">
     <g id="svg_1">
      <path id="svg_2" d="m93.199997,100.099995l3.2,0c0.8,0 1.4,-0.6 1.4,-1.4l0,-10.2l-4.6,0l0,11.6z" fill="#323C46"/>
     </g>
     <g id="svg_3">
      <path id="svg_4" d="m64.599997,100.099995l3.2,0l0,-11.6l-4.6,0l0,10.1c-0.1,0.8 0.6,1.5 1.4,1.5z" fill="#323C46"/>
     </g>
     <g id="svg_5">
      <path id="svg_6" d="m80.399997,53.899995c9.6,0 17.3,7.8 17.3,17.3l0,17.3l-4.6,0l0,9.2l-25.4,0l0,-9.2l-4.6,0l0,-17.3c0,-9.6 7.8,-17.3 17.3,-17.3z" fill="#FFD37A"/>
     </g>
     <g id="svg_7">
      <path id="svg_8" d="m72.399997,95.499995l16.2,0c0.6,0 1.2,-0.5 1.2,-1.2c0,-0.6 -0.5,-1.2 -1.2,-1.2l-16.2,0c-0.6,0 -1.2,0.5 -1.2,1.2c0,0.6 0.5,1.2 1.2,1.2z" fill="#DBB569"/>
     </g>
     <g id="svg_9">
      <path id="svg_10" d="m72.399997,90.799995l16.2,0c0.6,0 1.2,-0.5 1.2,-1.2c0,-0.6 -0.5,-1.2 -1.2,-1.2l-16.2,0c-0.6,0 -1.2,0.5 -1.2,1.2c0,0.7 0.5,1.2 1.2,1.2z" fill="#DBB569"/>
     </g>
     <path id="svg_11" d="m90.799997,72.399995c0,-6.4 -4.7,-11.6 -10.4,-11.6s-10.4,5.2 -10.4,11.6" fill="#DBB569"/>
     <g id="svg_12">
      <g id="svg_13">
       <path id="svg_14" d="m37.699997,98.899995l18.5,0l0,-2.3c0,-0.6 -0.5,-1.2 -1.2,-1.2l-16.2,0c-0.6,0 -1.2,0.5 -1.2,1.2l0,2.3l0.1,0z" fill="#465361"/>
      </g>
      <g id="svg_15">
       <g id="svg_16">
        <path id="svg_17" d="m41.199997,44.999995c0,3.5 1.2,6.8 3.5,9.4l0,6.6l-3.8,-3.8c-2.7,-2.7 -4.3,-6.4 -4.3,-10.3l0,-4.6l4.6,0l0,2.7z" fill="#323C46"/>
       </g>
       <g id="svg_18">
        <polygon id="svg_19" points="63.099997624754906,73 63.099997624754906,79.5 44.599997624754906,61 44.599997624754906,54.399993896484375 " fill="#323C46"/>
       </g>
      </g>
      <g id="svg_20">
       <path id="svg_21" d="m38.799997,33.199995c5.1,-3.3 10.4,0.3 10.4,5.1l0,8.7l0,45.1c0,0.6 -0.5,1.2 -1.2,1.2l-2.3,0c-0.6,0 -1.2,-0.5 -1.2,-1.2l0,-45.1l0,-8.7c0,-1 -0.8,-1.7 -1.7,-1.7c-1,0 -1.7,0.8 -1.7,1.7l0,4l-4.6,0l0,-4.7c0,-1.8 0.9,-3.4 2.3,-4.4z" fill="#EBE4D4"/>
      </g>
      <g id="svg_22">
       <rect id="svg_23" height="4.6" width="4.6" fill="#C9C3B5" transform="matrix(-1,-4.919144e-11,4.919144e-11,-1,213.8667,540.7778) " y="469.600005" x="164.600003"/>
      </g>
      <g id="svg_24">
       <path id="svg_25" d="m35.399997,100.099995l23.1,0c0.6,0 1.2,-0.5 1.2,-1.2c0,-0.6 -0.5,-1.2 -1.2,-1.2l-23.1,0c-0.6,0 -1.2,0.5 -1.2,1.2c0,0.7 0.5,1.2 1.2,1.2z" fill="#323C46"/>
      </g>
      <g id="svg_26">
       <path id="svg_27" d="m42.299997,95.499995l9.2,0l0,-2c0,-0.6 -0.5,-1.2 -1.2,-1.2l-6.9,0c-0.6,0 -1.2,0.5 -1.2,1.2l0,2l0.1,0z" fill="#323C46"/>
      </g>
     </g>
    </g>
   </g>
  </g>
 </g>
</svg>