<?xml version="1.0" encoding="utf-8"?>
<!-- Generator: Adobe Illustrator 19.0.0, SVG Export Plug-In . SVG Version: 6.00 Build 0)  -->
<svg version="1.1" id="Lager_1" xmlns="http://www.w3.org/2000/svg" xmlns:xlink="http://www.w3.org/1999/xlink" x="0px" y="0px"
	 viewBox="0 0 132 132" style="enable-background:new 0 0 132 132;" xml:space="preserve">
<style type="text/css">
	.st0{fill:none;}
	.st1{fill:#D13899;}
	.st2{fill:#323C46;}
	.st3{fill:#FFD37A;}
</style>
<g>
	<title>background</title>
	<rect id="canvas_background" x="-1" y="-1" class="st0" width="134" height="134"/>
</g>
<g>
	<title>Layer 1</title>
	<g id="icons">
		<g id="vacuum_cleaner">
			<circle id="label" class="st1" cx="66" cy="66" r="65"/>
			<g id="icon">
				<g id="svg_1">
					<path id="svg_2" class="st2" d="M93.2,100.1h3.2c0.8,0,1.4-0.6,1.4-1.4V88.5h-4.6V100.1z"/>
				</g>
				<g id="svg_3">
					<path id="svg_4" class="st2" d="M64.6,100.1h3.2V88.5h-4.6v10.1C63.1,99.4,63.8,100.1,64.6,100.1z"/>
				</g>
				<g id="svg_5">
					<path id="svg_6" class="st3" d="M80.4,53.9c9.6,0,17.3,7.8,17.3,17.3v17.3h-4.6v9.2H67.7v-9.2h-4.6V71.2
						C63.1,61.6,70.9,53.9,80.4,53.9z"/>
				</g>
				<g id="svg_12">
					<g id="svg_13">
						<path id="svg_14" class="st2" d="M37.7,98.9h18.5v-2.3c0-0.6-0.5-1.2-1.2-1.2H38.8c-0.6,0-1.2,0.5-1.2,1.2v2.3
							C37.6,98.9,37.7,98.9,37.7,98.9z"/>
					</g>
					<g id="svg_15">
						<g id="svg_16">
							<path id="svg_17" class="st2" d="M41.2,45c0,3.5,1.2,6.8,3.5,9.4V61l-3.8-3.8c-2.7-2.7-4.3-6.4-4.3-10.3v-4.6h4.6V45z"/>
						</g>
						<g id="svg_18">
							<polygon id="svg_19" class="st2" points="63.1,73 63.1,79.5 44.6,61 44.6,54.4 							"/>
						</g>
					</g>
					<g id="svg_20">
						<path id="svg_21" class="st2" d="M38.8,33.2c5.1-3.3,10.4,0.3,10.4,5.1V47v45.1c0,0.6-0.5,1.2-1.2,1.2h-2.3
							c-0.6,0-1.2-0.5-1.2-1.2V47v-8.7c0-1-0.8-1.7-1.7-1.7c-1,0-1.7,0.8-1.7,1.7v4h-4.6v-4.7C36.5,35.8,37.4,34.2,38.8,33.2z"/>
					</g>
					<g id="svg_24">
						<path id="svg_25" class="st2" d="M35.4,100.1h23.1c0.6,0,1.2-0.5,1.2-1.2c0-0.6-0.5-1.2-1.2-1.2H35.4c-0.6,0-1.2,0.5-1.2,1.2
							S34.7,100.1,35.4,100.1z"/>
					</g>
					<g id="svg_26">
						<path id="svg_27" class="st2" d="M42.3,95.5h9.2v-2c0-0.6-0.5-1.2-1.2-1.2h-6.9c-0.6,0-1.2,0.5-1.2,1.2v2
							C42.2,95.5,42.3,95.5,42.3,95.5z"/>
					</g>
				</g>
			</g>
		</g>
	</g>
</g>
</svg>
